<?xml version="1.0" encoding="utf-8" standalone="no"?>
<!DOCTYPE svg PUBLIC "-//W3C//DTD SVG 1.1//EN"
  "http://www.w3.org/Graphics/SVG/1.1/DTD/svg11.dtd">
<svg xmlns:xlink="http://www.w3.org/1999/xlink" width="9360pt" height="9360pt" viewBox="0 0 9360 9360" xmlns="http://www.w3.org/2000/svg" version="1.1">
 <metadata>
  <rdf:RDF xmlns:dc="http://purl.org/dc/elements/1.1/" xmlns:cc="http://creativecommons.org/ns#" xmlns:rdf="http://www.w3.org/1999/02/22-rdf-syntax-ns#">
   <cc:Work>
    <dc:type rdf:resource="http://purl.org/dc/dcmitype/StillImage"/>
    <dc:date>2024-01-10T01:09:49.748237</dc:date>
    <dc:format>image/svg+xml</dc:format>
    <dc:creator>
     <cc:Agent>
      <dc:title>Matplotlib v3.8.2, https://matplotlib.org/</dc:title>
     </cc:Agent>
    </dc:creator>
   </cc:Work>
  </rdf:RDF>
 </metadata>
 <defs>
  <style type="text/css">*{stroke-linejoin: round; stroke-linecap: butt}</style>
 </defs>
 <g id="figure_1">
  <g id="patch_1">
   <path d="M 0 9360 
L 9360 9360 
L 9360 0 
L 0 0 
z
"/>
  </g>
  <g id="axes_1">
   <g id="patch_2">
    <path d="M 2044.872003 7696.350593 
Q 2067.584687 7383.995621 1806.720036 7210.700987 
" clip-path="url(#p4e83fc110f)" style="fill: none; stroke: #000080; stroke-opacity: 0.730423; stroke-width: 7.304227; stroke-linecap: round"/>
   </g>
   <g id="patch_3">
    <path d="M 2052.826528 7704.286996 
Q 4755.947272 7484.841057 5841.363306 4999.505026 
" clip-path="url(#p4e83fc110f)" style="fill: none; stroke: #000080; stroke-opacity: 0.269577; stroke-width: 2.695773; stroke-linecap: round"/>
   </g>
   <g id="patch_4">
    <path d="M 2052.666542 7703.208185 
Q 3500.789401 7398.170243 3920.403091 5979.005048 
" clip-path="url(#p4e83fc110f)" style="fill: none; stroke: #000080; stroke-opacity: 0.730423; stroke-width: 7.304227; stroke-linecap: round"/>
   </g>
   <g id="patch_5">
    <path d="M 2050.258787 7698.807543 
Q 3777.155302 5938.451093 3043.824883 3584.04075 
" clip-path="url(#p4e83fc110f)" style="fill: none; stroke: #000080; stroke-opacity: 0.730423; stroke-width: 7.304227; stroke-linecap: round"/>
   </g>
   <g id="patch_6">
    <path d="M 2051.623472 7700.536743 
Q 4427.275611 6277.24226 4296.993239 3510.924619 
" clip-path="url(#p4e83fc110f)" style="fill: none; stroke: #000080; stroke-opacity: 0.730423; stroke-width: 7.304227; stroke-linecap: round"/>
   </g>
   <g id="patch_7">
    <path d="M 6040.517551 2136.764652 
Q 7028.08385 2465.64082 7788.209123 1754.54424 
" clip-path="url(#p4e83fc110f)" style="fill: none; stroke: #800000; stroke-opacity: 0.269577; stroke-width: 2.695773; stroke-linecap: round"/>
   </g>
   <g id="PathCollection_1">
    <path d="M 2044.192506 7728.698901 
C 2050.482349 7728.698901 2056.515424 7726.199919 2060.963015 7721.752328 
C 2065.410607 7717.304737 2067.909588 7711.271662 2067.909588 7704.981818 
C 2067.909588 7698.691974 2065.410607 7692.6589 2060.963015 7688.211308 
C 2056.515424 7683.763717 2050.482349 7681.264736 2044.192506 7681.264736 
C 2037.902662 7681.264736 2031.869587 7683.763717 2027.421996 7688.211308 
C 2022.974405 7692.6589 2020.475423 7698.691974 2020.475423 7704.981818 
C 2020.475423 7711.271662 2022.974405 7717.304737 2027.421996 7721.752328 
C 2031.869587 7726.199919 2037.902662 7728.698901 2044.192506 7728.698901 
z
" clip-path="url(#p4e83fc110f)" style="fill: #000080; stroke: #000080"/>
    <path d="M 1799.479339 7216.559664 
C 1802.292242 7216.559664 1804.990316 7215.442086 1806.979339 7213.453063 
C 1808.968362 7211.464039 1810.085941 7208.765966 1810.085941 7205.953063 
C 1810.085941 7203.140159 1808.968362 7200.442086 1806.979339 7198.453063 
C 1804.990316 7196.464039 1802.292242 7195.346461 1799.479339 7195.346461 
C 1796.666435 7195.346461 1793.968362 7196.464039 1791.979339 7198.453063 
C 1789.990316 7200.442086 1788.872737 7203.140159 1788.872737 7205.953063 
C 1788.872737 7208.765966 1789.990316 7211.464039 1791.979339 7213.453063 
C 1793.968362 7215.442086 1796.666435 7216.559664 1799.479339 7216.559664 
z
" clip-path="url(#p4e83fc110f)" style="fill: #000080; fill-opacity: 0.728453; stroke: #000080; stroke-opacity: 0.728453"/>
    <path d="M 5844.823086 5000.228033 
C 5847.119812 5000.228033 5849.322779 4999.315534 5850.94681 4997.691503 
C 5852.570841 4996.067472 5853.48334 4993.864505 5853.48334 4991.567779 
C 5853.48334 4989.271053 5852.570841 4987.068085 5850.94681 4985.444054 
C 5849.322779 4983.820024 5847.119812 4982.907525 5844.823086 4982.907525 
C 5842.52636 4982.907525 5840.323392 4983.820024 5838.699361 4985.444054 
C 5837.075331 4987.068085 5836.162832 4989.271053 5836.162832 4991.567779 
C 5836.162832 4993.864505 5837.075331 4996.067472 5838.699361 4997.691503 
C 5840.323392 4999.315534 5842.52636 5000.228033 5844.823086 5000.228033 
z
" clip-path="url(#p4e83fc110f)" style="fill: #000080; fill-opacity: 0.660042; stroke: #000080; stroke-opacity: 0.660042"/>
    <path d="M 3922.84812 5981.303112 
C 3925.661024 5981.303112 3928.359097 5980.185533 3930.34812 5978.19651 
C 3932.337144 5976.207487 3933.454722 5973.509414 3933.454722 5970.69651 
C 3933.454722 5967.883606 3932.337144 5965.185533 3930.34812 5963.19651 
C 3928.359097 5961.207487 3925.661024 5960.089908 3922.84812 5960.089908 
C 3920.035217 5960.089908 3917.337144 5961.207487 3915.34812 5963.19651 
C 3913.359097 5965.185533 3912.241519 5967.883606 3912.241519 5970.69651 
C 3912.241519 5973.509414 3913.359097 5976.207487 3915.34812 5978.19651 
C 3917.337144 5980.185533 3920.035217 5981.303112 3922.84812 5981.303112 
z
" clip-path="url(#p4e83fc110f)" style="fill: #000080; fill-opacity: 0.728453; stroke: #000080; stroke-opacity: 0.728453"/>
    <path d="M 3041.243354 3584.435315 
C 3043.54008 3584.435315 3045.743048 3583.522816 3047.367078 3581.898785 
C 3048.991109 3580.274755 3049.903608 3578.071787 3049.903608 3575.775061 
C 3049.903608 3573.478335 3048.991109 3571.275367 3047.367078 3569.651337 
C 3045.743048 3568.027306 3043.54008 3567.114807 3041.243354 3567.114807 
C 3038.946628 3567.114807 3036.74366 3568.027306 3035.11963 3569.651337 
C 3033.495599 3571.275367 3032.5831 3573.478335 3032.5831 3575.775061 
C 3032.5831 3578.071787 3033.495599 3580.274755 3035.11963 3581.898785 
C 3036.74366 3583.522816 3038.946628 3584.435315 3041.243354 3584.435315 
z
" clip-path="url(#p4e83fc110f)" style="fill: #000080; fill-opacity: 0.660042; stroke: #000080; stroke-opacity: 0.660042"/>
    <path d="M 4296.57982 3510.933377 
C 4298.876547 3510.933377 4301.079514 3510.020878 4302.703545 3508.396847 
C 4304.327575 3506.772816 4305.240074 3504.569849 4305.240074 3502.273123 
C 4305.240074 3499.976397 4304.327575 3497.773429 4302.703545 3496.149398 
C 4301.079514 3494.525368 4298.876547 3493.612869 4296.57982 3493.612869 
C 4294.283094 3493.612869 4292.080127 3494.525368 4290.456096 3496.149398 
C 4288.832065 3497.773429 4287.919566 3499.976397 4287.919566 3502.273123 
C 4287.919566 3504.569849 4288.832065 3506.772816 4290.456096 3508.396847 
C 4292.080127 3510.020878 4294.283094 3510.933377 4296.57982 3510.933377 
z
" clip-path="url(#p4e83fc110f)" style="fill: #000080; fill-opacity: 0.660042; stroke: #000080; stroke-opacity: 0.660042"/>
    <path d="M 6032.304906 2144.61965 
C 6035.117809 2144.61965 6037.815883 2143.502072 6039.804906 2141.513049 
C 6041.793929 2139.524025 6042.911507 2136.825952 6042.911507 2134.013049 
C 6042.911507 2131.200145 6041.793929 2128.502072 6039.804906 2126.513049 
C 6037.815883 2124.524025 6035.117809 2123.406447 6032.304906 2123.406447 
C 6029.492002 2123.406447 6026.793929 2124.524025 6024.804906 2126.513049 
C 6022.815883 2128.502072 6021.698304 2131.200145 6021.698304 2134.013049 
C 6021.698304 2136.825952 6022.815883 2139.524025 6024.804906 2141.513049 
C 6026.793929 2143.502072 6029.492002 2144.61965 6032.304906 2144.61965 
z
" clip-path="url(#p4e83fc110f)" style="fill: #800000; fill-opacity: 0.728453; stroke: #800000; stroke-opacity: 0.728453"/>
    <path d="M 7794.520661 1757.278436 
C 7796.817387 1757.278436 7799.020355 1756.365937 7800.644386 1754.741906 
C 7802.268416 1753.117875 7803.180915 1750.914908 7803.180915 1748.618182 
C 7803.180915 1746.321456 7802.268416 1744.118488 7800.644386 1742.494457 
C 7799.020355 1740.870427 7796.817387 1739.957928 7794.520661 1739.957928 
C 7792.223935 1739.957928 7790.020967 1740.870427 7788.396937 1742.494457 
C 7786.772906 1744.118488 7785.860407 1746.321456 7785.860407 1748.618182 
C 7785.860407 1750.914908 7786.772906 1753.117875 7788.396937 1754.741906 
C 7790.020967 1756.365937 7792.223935 1757.278436 7794.520661 1757.278436 
z
" clip-path="url(#p4e83fc110f)" style="fill: #800000; fill-opacity: 0.660042; stroke: #800000; stroke-opacity: 0.660042"/>
   </g>
   <g id="text_1">
    <g clip-path="url(#p4e83fc110f)">
     <!-- Boreale -->
     <g style="fill: #fffafa" transform="translate(1968.652662 7697.702912) scale(0.35 -0.35)">
      <defs>
       <path id="DejaVuSans-Bold-42" d="M 2456 2859 
Q 2741 2859 2887 2984 
Q 3034 3109 3034 3353 
Q 3034 3594 2887 3720 
Q 2741 3847 2456 3847 
L 1791 3847 
L 1791 2859 
L 2456 2859 
z
M 2497 819 
Q 2859 819 3042 972 
Q 3225 1125 3225 1434 
Q 3225 1738 3044 1889 
Q 2863 2041 2497 2041 
L 1791 2041 
L 1791 819 
L 2497 819 
z
M 3616 2497 
Q 4003 2384 4215 2081 
Q 4428 1778 4428 1338 
Q 4428 663 3972 331 
Q 3516 0 2584 0 
L 588 0 
L 588 4666 
L 2394 4666 
Q 3366 4666 3802 4372 
Q 4238 4078 4238 3431 
Q 4238 3091 4078 2852 
Q 3919 2613 3616 2497 
z
" transform="scale(0.015625)"/>
       <path id="DejaVuSans-Bold-6f" d="M 2203 2784 
Q 1831 2784 1636 2517 
Q 1441 2250 1441 1747 
Q 1441 1244 1636 976 
Q 1831 709 2203 709 
Q 2569 709 2762 976 
Q 2956 1244 2956 1747 
Q 2956 2250 2762 2517 
Q 2569 2784 2203 2784 
z
M 2203 3584 
Q 3106 3584 3614 3096 
Q 4122 2609 4122 1747 
Q 4122 884 3614 396 
Q 3106 -91 2203 -91 
Q 1297 -91 786 396 
Q 275 884 275 1747 
Q 275 2609 786 3096 
Q 1297 3584 2203 3584 
z
" transform="scale(0.015625)"/>
       <path id="DejaVuSans-Bold-72" d="M 3138 2547 
Q 2991 2616 2845 2648 
Q 2700 2681 2553 2681 
Q 2122 2681 1889 2404 
Q 1656 2128 1656 1613 
L 1656 0 
L 538 0 
L 538 3500 
L 1656 3500 
L 1656 2925 
Q 1872 3269 2151 3426 
Q 2431 3584 2822 3584 
Q 2878 3584 2943 3579 
Q 3009 3575 3134 3559 
L 3138 2547 
z
" transform="scale(0.015625)"/>
       <path id="DejaVuSans-Bold-65" d="M 4031 1759 
L 4031 1441 
L 1416 1441 
Q 1456 1047 1700 850 
Q 1944 653 2381 653 
Q 2734 653 3104 758 
Q 3475 863 3866 1075 
L 3866 213 
Q 3469 63 3072 -14 
Q 2675 -91 2278 -91 
Q 1328 -91 801 392 
Q 275 875 275 1747 
Q 275 2603 792 3093 
Q 1309 3584 2216 3584 
Q 3041 3584 3536 3087 
Q 4031 2591 4031 1759 
z
M 2881 2131 
Q 2881 2450 2695 2645 
Q 2509 2841 2209 2841 
Q 1884 2841 1681 2658 
Q 1478 2475 1428 2131 
L 2881 2131 
z
" transform="scale(0.015625)"/>
       <path id="DejaVuSans-Bold-61" d="M 2106 1575 
Q 1756 1575 1579 1456 
Q 1403 1338 1403 1106 
Q 1403 894 1545 773 
Q 1688 653 1941 653 
Q 2256 653 2472 879 
Q 2688 1106 2688 1447 
L 2688 1575 
L 2106 1575 
z
M 3816 1997 
L 3816 0 
L 2688 0 
L 2688 519 
Q 2463 200 2181 54 
Q 1900 -91 1497 -91 
Q 953 -91 614 226 
Q 275 544 275 1050 
Q 275 1666 698 1953 
Q 1122 2241 2028 2241 
L 2688 2241 
L 2688 2328 
Q 2688 2594 2478 2717 
Q 2269 2841 1825 2841 
Q 1466 2841 1156 2769 
Q 847 2697 581 2553 
L 581 3406 
Q 941 3494 1303 3539 
Q 1666 3584 2028 3584 
Q 2975 3584 3395 3211 
Q 3816 2838 3816 1997 
z
" transform="scale(0.015625)"/>
       <path id="DejaVuSans-Bold-6c" d="M 538 4863 
L 1656 4863 
L 1656 0 
L 538 0 
L 538 4863 
z
" transform="scale(0.015625)"/>
      </defs>
      <use xlink:href="#DejaVuSans-Bold-42"/>
      <use xlink:href="#DejaVuSans-Bold-6f" x="76.220703"/>
      <use xlink:href="#DejaVuSans-Bold-72" x="144.921875"/>
      <use xlink:href="#DejaVuSans-Bold-65" x="194.238281"/>
      <use xlink:href="#DejaVuSans-Bold-61" x="262.060547"/>
      <use xlink:href="#DejaVuSans-Bold-6c" x="329.541016"/>
      <use xlink:href="#DejaVuSans-Bold-65" x="363.818359"/>
     </g>
    </g>
   </g>
   <g id="text_2">
    <g clip-path="url(#p4e83fc110f)">
     <!-- Freya -->
     <g style="fill: #fffafa" transform="translate(1759.737665 7200.451534) scale(0.254959 -0.254959)">
      <defs>
       <path id="DejaVuSans-Bold-46" d="M 588 4666 
L 3834 4666 
L 3834 3756 
L 1791 3756 
L 1791 2888 
L 3713 2888 
L 3713 1978 
L 1791 1978 
L 1791 0 
L 588 0 
L 588 4666 
z
" transform="scale(0.015625)"/>
       <path id="DejaVuSans-Bold-79" d="M 78 3500 
L 1197 3500 
L 2138 1125 
L 2938 3500 
L 4056 3500 
L 2584 -331 
Q 2363 -916 2067 -1148 
Q 1772 -1381 1288 -1381 
L 641 -1381 
L 641 -647 
L 991 -647 
Q 1275 -647 1404 -556 
Q 1534 -466 1606 -231 
L 1638 -134 
L 78 3500 
z
" transform="scale(0.015625)"/>
      </defs>
      <use xlink:href="#DejaVuSans-Bold-46"/>
      <use xlink:href="#DejaVuSans-Bold-72" x="61.935547"/>
      <use xlink:href="#DejaVuSans-Bold-65" x="111.251953"/>
      <use xlink:href="#DejaVuSans-Bold-79" x="179.074219"/>
      <use xlink:href="#DejaVuSans-Bold-61" x="244.259766"/>
     </g>
    </g>
   </g>
   <g id="text_3">
    <g clip-path="url(#p4e83fc110f)">
     <!-- Saler -->
     <g style="fill: #fffafa" transform="translate(5811.219446 4986.763391) scale(0.231015 -0.231015)">
      <defs>
       <path id="DejaVuSans-Bold-53" d="M 3834 4519 
L 3834 3531 
Q 3450 3703 3084 3790 
Q 2719 3878 2394 3878 
Q 1963 3878 1756 3759 
Q 1550 3641 1550 3391 
Q 1550 3203 1689 3098 
Q 1828 2994 2194 2919 
L 2706 2816 
Q 3484 2659 3812 2340 
Q 4141 2022 4141 1434 
Q 4141 663 3683 286 
Q 3225 -91 2284 -91 
Q 1841 -91 1394 -6 
Q 947 78 500 244 
L 500 1259 
Q 947 1022 1364 901 
Q 1781 781 2169 781 
Q 2563 781 2772 912 
Q 2981 1044 2981 1288 
Q 2981 1506 2839 1625 
Q 2697 1744 2272 1838 
L 1806 1941 
Q 1106 2091 782 2419 
Q 459 2747 459 3303 
Q 459 4000 909 4375 
Q 1359 4750 2203 4750 
Q 2588 4750 2994 4692 
Q 3400 4634 3834 4519 
z
" transform="scale(0.015625)"/>
      </defs>
      <use xlink:href="#DejaVuSans-Bold-53"/>
      <use xlink:href="#DejaVuSans-Bold-61" x="72.021484"/>
      <use xlink:href="#DejaVuSans-Bold-6c" x="139.501953"/>
      <use xlink:href="#DejaVuSans-Bold-65" x="173.779297"/>
      <use xlink:href="#DejaVuSans-Bold-72" x="241.601562"/>
     </g>
    </g>
   </g>
   <g id="text_4">
    <g clip-path="url(#p4e83fc110f)">
     <!-- Joshua_38 -->
     <g style="fill: #fffafa" transform="translate(3850.894019 5964.685064) scale(0.254959 -0.254959)">
      <defs>
       <path id="DejaVuSans-Bold-4a" d="M 588 4666 
L 1791 4666 
L 1791 453 
Q 1791 -419 1317 -850 
Q 844 -1281 -116 -1281 
L -359 -1281 
L -359 -372 
L -172 -372 
Q 203 -372 395 -162 
Q 588 47 588 453 
L 588 4666 
z
" transform="scale(0.015625)"/>
       <path id="DejaVuSans-Bold-73" d="M 3272 3391 
L 3272 2541 
Q 2913 2691 2578 2766 
Q 2244 2841 1947 2841 
Q 1628 2841 1473 2761 
Q 1319 2681 1319 2516 
Q 1319 2381 1436 2309 
Q 1553 2238 1856 2203 
L 2053 2175 
Q 2913 2066 3209 1816 
Q 3506 1566 3506 1031 
Q 3506 472 3093 190 
Q 2681 -91 1863 -91 
Q 1516 -91 1145 -36 
Q 775 19 384 128 
L 384 978 
Q 719 816 1070 734 
Q 1422 653 1784 653 
Q 2113 653 2278 743 
Q 2444 834 2444 1013 
Q 2444 1163 2330 1236 
Q 2216 1309 1875 1350 
L 1678 1375 
Q 931 1469 631 1722 
Q 331 1975 331 2491 
Q 331 3047 712 3315 
Q 1094 3584 1881 3584 
Q 2191 3584 2531 3537 
Q 2872 3491 3272 3391 
z
" transform="scale(0.015625)"/>
       <path id="DejaVuSans-Bold-68" d="M 4056 2131 
L 4056 0 
L 2931 0 
L 2931 347 
L 2931 1625 
Q 2931 2084 2911 2256 
Q 2891 2428 2841 2509 
Q 2775 2619 2662 2680 
Q 2550 2741 2406 2741 
Q 2056 2741 1856 2470 
Q 1656 2200 1656 1722 
L 1656 0 
L 538 0 
L 538 4863 
L 1656 4863 
L 1656 2988 
Q 1909 3294 2193 3439 
Q 2478 3584 2822 3584 
Q 3428 3584 3742 3212 
Q 4056 2841 4056 2131 
z
" transform="scale(0.015625)"/>
       <path id="DejaVuSans-Bold-75" d="M 500 1363 
L 500 3500 
L 1625 3500 
L 1625 3150 
Q 1625 2866 1622 2436 
Q 1619 2006 1619 1863 
Q 1619 1441 1641 1255 
Q 1663 1069 1716 984 
Q 1784 875 1895 815 
Q 2006 756 2150 756 
Q 2500 756 2700 1025 
Q 2900 1294 2900 1772 
L 2900 3500 
L 4019 3500 
L 4019 0 
L 2900 0 
L 2900 506 
Q 2647 200 2364 54 
Q 2081 -91 1741 -91 
Q 1134 -91 817 281 
Q 500 653 500 1363 
z
" transform="scale(0.015625)"/>
       <path id="DejaVuSans-Bold-5f" d="M 3200 -916 
L 3200 -1509 
L 0 -1509 
L 0 -916 
L 3200 -916 
z
" transform="scale(0.015625)"/>
       <path id="DejaVuSans-Bold-33" d="M 2981 2516 
Q 3453 2394 3698 2092 
Q 3944 1791 3944 1325 
Q 3944 631 3412 270 
Q 2881 -91 1863 -91 
Q 1503 -91 1142 -33 
Q 781 25 428 141 
L 428 1069 
Q 766 900 1098 814 
Q 1431 728 1753 728 
Q 2231 728 2486 893 
Q 2741 1059 2741 1369 
Q 2741 1688 2480 1852 
Q 2219 2016 1709 2016 
L 1228 2016 
L 1228 2791 
L 1734 2791 
Q 2188 2791 2409 2933 
Q 2631 3075 2631 3366 
Q 2631 3634 2415 3781 
Q 2200 3928 1806 3928 
Q 1516 3928 1219 3862 
Q 922 3797 628 3669 
L 628 4550 
Q 984 4650 1334 4700 
Q 1684 4750 2022 4750 
Q 2931 4750 3382 4451 
Q 3834 4153 3834 3553 
Q 3834 3144 3618 2883 
Q 3403 2622 2981 2516 
z
" transform="scale(0.015625)"/>
       <path id="DejaVuSans-Bold-38" d="M 2228 2088 
Q 1891 2088 1709 1903 
Q 1528 1719 1528 1375 
Q 1528 1031 1709 848 
Q 1891 666 2228 666 
Q 2563 666 2741 848 
Q 2919 1031 2919 1375 
Q 2919 1722 2741 1905 
Q 2563 2088 2228 2088 
z
M 1350 2484 
Q 925 2613 709 2878 
Q 494 3144 494 3541 
Q 494 4131 934 4440 
Q 1375 4750 2228 4750 
Q 3075 4750 3515 4442 
Q 3956 4134 3956 3541 
Q 3956 3144 3739 2878 
Q 3522 2613 3097 2484 
Q 3572 2353 3814 2058 
Q 4056 1763 4056 1313 
Q 4056 619 3595 264 
Q 3134 -91 2228 -91 
Q 1319 -91 855 264 
Q 391 619 391 1313 
Q 391 1763 633 2058 
Q 875 2353 1350 2484 
z
M 1631 3419 
Q 1631 3141 1786 2991 
Q 1941 2841 2228 2841 
Q 2509 2841 2662 2991 
Q 2816 3141 2816 3419 
Q 2816 3697 2662 3845 
Q 2509 3994 2228 3994 
Q 1941 3994 1786 3844 
Q 1631 3694 1631 3419 
z
" transform="scale(0.015625)"/>
      </defs>
      <use xlink:href="#DejaVuSans-Bold-4a"/>
      <use xlink:href="#DejaVuSans-Bold-6f" x="37.207031"/>
      <use xlink:href="#DejaVuSans-Bold-73" x="105.908203"/>
      <use xlink:href="#DejaVuSans-Bold-68" x="165.429688"/>
      <use xlink:href="#DejaVuSans-Bold-75" x="236.621094"/>
      <use xlink:href="#DejaVuSans-Bold-61" x="307.8125"/>
      <use xlink:href="#DejaVuSans-Bold-5f" x="375.292969"/>
      <use xlink:href="#DejaVuSans-Bold-33" x="425.292969"/>
      <use xlink:href="#DejaVuSans-Bold-38" x="494.873047"/>
     </g>
    </g>
   </g>
   <g id="text_5">
    <g clip-path="url(#p4e83fc110f)">
     <!-- Madmax -->
     <g style="fill: #fffafa" transform="translate(2986.404394 3570.970674) scale(0.231015 -0.231015)">
      <defs>
       <path id="DejaVuSans-Bold-4d" d="M 588 4666 
L 2119 4666 
L 3181 2169 
L 4250 4666 
L 5778 4666 
L 5778 0 
L 4641 0 
L 4641 3413 
L 3566 897 
L 2803 897 
L 1728 3413 
L 1728 0 
L 588 0 
L 588 4666 
z
" transform="scale(0.015625)"/>
       <path id="DejaVuSans-Bold-64" d="M 2919 2988 
L 2919 4863 
L 4044 4863 
L 4044 0 
L 2919 0 
L 2919 506 
Q 2688 197 2409 53 
Q 2131 -91 1766 -91 
Q 1119 -91 703 423 
Q 288 938 288 1747 
Q 288 2556 703 3070 
Q 1119 3584 1766 3584 
Q 2128 3584 2408 3439 
Q 2688 3294 2919 2988 
z
M 2181 722 
Q 2541 722 2730 984 
Q 2919 1247 2919 1747 
Q 2919 2247 2730 2509 
Q 2541 2772 2181 2772 
Q 1825 2772 1636 2509 
Q 1447 2247 1447 1747 
Q 1447 1247 1636 984 
Q 1825 722 2181 722 
z
" transform="scale(0.015625)"/>
       <path id="DejaVuSans-Bold-6d" d="M 3781 2919 
Q 3994 3244 4286 3414 
Q 4578 3584 4928 3584 
Q 5531 3584 5847 3212 
Q 6163 2841 6163 2131 
L 6163 0 
L 5038 0 
L 5038 1825 
Q 5041 1866 5042 1909 
Q 5044 1953 5044 2034 
Q 5044 2406 4934 2573 
Q 4825 2741 4581 2741 
Q 4263 2741 4089 2478 
Q 3916 2216 3909 1719 
L 3909 0 
L 2784 0 
L 2784 1825 
Q 2784 2406 2684 2573 
Q 2584 2741 2328 2741 
Q 2006 2741 1831 2477 
Q 1656 2213 1656 1722 
L 1656 0 
L 531 0 
L 531 3500 
L 1656 3500 
L 1656 2988 
Q 1863 3284 2130 3434 
Q 2397 3584 2719 3584 
Q 3081 3584 3359 3409 
Q 3638 3234 3781 2919 
z
" transform="scale(0.015625)"/>
       <path id="DejaVuSans-Bold-78" d="M 1422 1791 
L 159 3500 
L 1344 3500 
L 2059 2463 
L 2784 3500 
L 3969 3500 
L 2706 1797 
L 4031 0 
L 2847 0 
L 2059 1106 
L 1281 0 
L 97 0 
L 1422 1791 
z
" transform="scale(0.015625)"/>
      </defs>
      <use xlink:href="#DejaVuSans-Bold-4d"/>
      <use xlink:href="#DejaVuSans-Bold-61" x="99.511719"/>
      <use xlink:href="#DejaVuSans-Bold-64" x="166.992188"/>
      <use xlink:href="#DejaVuSans-Bold-6d" x="238.574219"/>
      <use xlink:href="#DejaVuSans-Bold-61" x="342.773438"/>
      <use xlink:href="#DejaVuSans-Bold-78" x="410.253906"/>
     </g>
    </g>
   </g>
   <g id="text_6">
    <g clip-path="url(#p4e83fc110f)">
     <!-- BLL -->
     <g style="fill: #fffafa" transform="translate(4273.056009 3497.468735) scale(0.231015 -0.231015)">
      <defs>
       <path id="DejaVuSans-Bold-4c" d="M 588 4666 
L 1791 4666 
L 1791 909 
L 3903 909 
L 3903 0 
L 588 0 
L 588 4666 
z
" transform="scale(0.015625)"/>
      </defs>
      <use xlink:href="#DejaVuSans-Bold-42"/>
      <use xlink:href="#DejaVuSans-Bold-4c" x="76.220703"/>
      <use xlink:href="#DejaVuSans-Bold-4c" x="139.941406"/>
     </g>
    </g>
   </g>
   <g id="text_7">
    <g clip-path="url(#p4e83fc110f)">
     <!-- PatrickSebasti1 -->
     <g style="fill: #fffafa" transform="translate(5919.433931 2128.710706) scale(0.254959 -0.254959)">
      <defs>
       <path id="DejaVuSans-Bold-50" d="M 588 4666 
L 2584 4666 
Q 3475 4666 3951 4270 
Q 4428 3875 4428 3144 
Q 4428 2409 3951 2014 
Q 3475 1619 2584 1619 
L 1791 1619 
L 1791 0 
L 588 0 
L 588 4666 
z
M 1791 3794 
L 1791 2491 
L 2456 2491 
Q 2806 2491 2997 2661 
Q 3188 2831 3188 3144 
Q 3188 3456 2997 3625 
Q 2806 3794 2456 3794 
L 1791 3794 
z
" transform="scale(0.015625)"/>
       <path id="DejaVuSans-Bold-74" d="M 1759 4494 
L 1759 3500 
L 2913 3500 
L 2913 2700 
L 1759 2700 
L 1759 1216 
Q 1759 972 1856 886 
Q 1953 800 2241 800 
L 2816 800 
L 2816 0 
L 1856 0 
Q 1194 0 917 276 
Q 641 553 641 1216 
L 641 2700 
L 84 2700 
L 84 3500 
L 641 3500 
L 641 4494 
L 1759 4494 
z
" transform="scale(0.015625)"/>
       <path id="DejaVuSans-Bold-69" d="M 538 3500 
L 1656 3500 
L 1656 0 
L 538 0 
L 538 3500 
z
M 538 4863 
L 1656 4863 
L 1656 3950 
L 538 3950 
L 538 4863 
z
" transform="scale(0.015625)"/>
       <path id="DejaVuSans-Bold-63" d="M 3366 3391 
L 3366 2478 
Q 3138 2634 2908 2709 
Q 2678 2784 2431 2784 
Q 1963 2784 1702 2511 
Q 1441 2238 1441 1747 
Q 1441 1256 1702 982 
Q 1963 709 2431 709 
Q 2694 709 2930 787 
Q 3166 866 3366 1019 
L 3366 103 
Q 3103 6 2833 -42 
Q 2563 -91 2291 -91 
Q 1344 -91 809 395 
Q 275 881 275 1747 
Q 275 2613 809 3098 
Q 1344 3584 2291 3584 
Q 2566 3584 2833 3536 
Q 3100 3488 3366 3391 
z
" transform="scale(0.015625)"/>
       <path id="DejaVuSans-Bold-6b" d="M 538 4863 
L 1656 4863 
L 1656 2216 
L 2944 3500 
L 4244 3500 
L 2534 1894 
L 4378 0 
L 3022 0 
L 1656 1459 
L 1656 0 
L 538 0 
L 538 4863 
z
" transform="scale(0.015625)"/>
       <path id="DejaVuSans-Bold-62" d="M 2400 722 
Q 2759 722 2948 984 
Q 3138 1247 3138 1747 
Q 3138 2247 2948 2509 
Q 2759 2772 2400 2772 
Q 2041 2772 1848 2508 
Q 1656 2244 1656 1747 
Q 1656 1250 1848 986 
Q 2041 722 2400 722 
z
M 1656 2988 
Q 1888 3294 2169 3439 
Q 2450 3584 2816 3584 
Q 3463 3584 3878 3070 
Q 4294 2556 4294 1747 
Q 4294 938 3878 423 
Q 3463 -91 2816 -91 
Q 2450 -91 2169 54 
Q 1888 200 1656 506 
L 1656 0 
L 538 0 
L 538 4863 
L 1656 4863 
L 1656 2988 
z
" transform="scale(0.015625)"/>
       <path id="DejaVuSans-Bold-31" d="M 750 831 
L 1813 831 
L 1813 3847 
L 722 3622 
L 722 4441 
L 1806 4666 
L 2950 4666 
L 2950 831 
L 4013 831 
L 4013 0 
L 750 0 
L 750 831 
z
" transform="scale(0.015625)"/>
      </defs>
      <use xlink:href="#DejaVuSans-Bold-50"/>
      <use xlink:href="#DejaVuSans-Bold-61" x="70.666016"/>
      <use xlink:href="#DejaVuSans-Bold-74" x="138.146484"/>
      <use xlink:href="#DejaVuSans-Bold-72" x="185.949219"/>
      <use xlink:href="#DejaVuSans-Bold-69" x="235.265625"/>
      <use xlink:href="#DejaVuSans-Bold-63" x="269.542969"/>
      <use xlink:href="#DejaVuSans-Bold-6b" x="328.820312"/>
      <use xlink:href="#DejaVuSans-Bold-53" x="395.324219"/>
      <use xlink:href="#DejaVuSans-Bold-65" x="467.345703"/>
      <use xlink:href="#DejaVuSans-Bold-62" x="535.167969"/>
      <use xlink:href="#DejaVuSans-Bold-61" x="606.75"/>
      <use xlink:href="#DejaVuSans-Bold-73" x="674.230469"/>
      <use xlink:href="#DejaVuSans-Bold-74" x="733.751953"/>
      <use xlink:href="#DejaVuSans-Bold-69" x="781.554688"/>
      <use xlink:href="#DejaVuSans-Bold-31" x="815.832031"/>
     </g>
    </g>
   </g>
   <g id="text_8">
    <path d="M 7768.024338 1726.971366 
L 7779.741124 1726.971366 
L 7779.741124 1730.256109 
L 7772.366696 1730.256109 
L 7772.366696 1733.389248 
L 7779.304361 1733.389248 
L 7779.304361 1736.673991 
L 7772.366696 1736.673991 
L 7772.366696 1743.813794 
L 7768.024338 1743.813794 
L 7768.024338 1726.971366 
z
M 7795.308909 1737.464495 
L 7795.308909 1738.61235 
L 7785.869786 1738.61235 
Q 7786.01417 1740.034536 7786.894914 1740.745628 
Q 7787.775659 1741.456721 7789.353057 1741.456721 
Q 7790.627248 1741.456721 7791.962803 1741.077712 
Q 7793.301967 1740.698703 7794.713324 1739.933467 
L 7794.713324 1743.044948 
Q 7793.28031 1743.586389 7791.847296 1743.864329 
Q 7790.414282 1744.142269 7788.981267 1744.142269 
Q 7785.55214 1744.142269 7783.649877 1742.398828 
Q 7781.751224 1740.655388 7781.751224 1737.50781 
Q 7781.751224 1734.417986 7783.617391 1732.649279 
Q 7785.483558 1730.876962 7788.757472 1730.876962 
Q 7791.735398 1730.876962 7793.522154 1732.670936 
Q 7795.308909 1734.461302 7795.308909 1737.464495 
z
M 7791.157861 1736.121721 
Q 7791.157861 1734.970256 7790.486474 1734.266383 
Q 7789.815087 1733.5589 7788.732205 1733.5589 
Q 7787.559082 1733.5589 7786.826332 1734.219458 
Q 7786.093582 1734.880016 7785.913101 1736.121721 
L 7791.157861 1736.121721 
z
M 7810.976861 1737.464495 
L 7810.976861 1738.61235 
L 7801.537738 1738.61235 
Q 7801.682122 1740.034536 7802.562866 1740.745628 
Q 7803.443611 1741.456721 7805.021009 1741.456721 
Q 7806.2952 1741.456721 7807.630755 1741.077712 
Q 7808.969919 1740.698703 7810.381276 1739.933467 
L 7810.381276 1743.044948 
Q 7808.948262 1743.586389 7807.515248 1743.864329 
Q 7806.082234 1744.142269 7804.649219 1744.142269 
Q 7801.220092 1744.142269 7799.317829 1742.398828 
Q 7797.419176 1740.655388 7797.419176 1737.50781 
Q 7797.419176 1734.417986 7799.285343 1732.649279 
Q 7801.15151 1730.876962 7804.425424 1730.876962 
Q 7807.40335 1730.876962 7809.190105 1732.670936 
Q 7810.976861 1734.461302 7810.976861 1737.464495 
z
M 7806.825813 1736.121721 
Q 7806.825813 1734.970256 7806.154426 1734.266383 
Q 7805.483039 1733.5589 7804.400157 1733.5589 
Q 7803.227034 1733.5589 7802.494284 1734.219458 
Q 7801.761534 1734.880016 7801.581053 1736.121721 
L 7806.825813 1736.121721 
z
M 7818.443785 1727.592219 
L 7818.443785 1731.180169 
L 7822.609272 1731.180169 
L 7822.609272 1734.067855 
L 7818.443785 1734.067855 
L 7818.443785 1739.424512 
Q 7818.443785 1740.305256 7818.793917 1740.615682 
Q 7819.144049 1740.926109 7820.183616 1740.926109 
L 7822.25914 1740.926109 
L 7822.25914 1743.813794 
L 7818.793917 1743.813794 
Q 7816.404357 1743.813794 7815.404496 1742.817543 
Q 7814.408244 1741.817682 7814.408244 1739.424512 
L 7814.408244 1734.067855 
L 7812.397693 1734.067855 
L 7812.397693 1731.180169 
L 7814.408244 1731.180169 
L 7814.408244 1727.592219 
L 7818.443785 1727.592219 
z
" clip-path="url(#p4e83fc110f)" style="fill: #fffafa; stroke: #000000"/>
    <path d="M 7768.024338 1726.971366 
L 7779.741124 1726.971366 
L 7779.741124 1730.256109 
L 7772.366696 1730.256109 
L 7772.366696 1733.389248 
L 7779.304361 1733.389248 
L 7779.304361 1736.673991 
L 7772.366696 1736.673991 
L 7772.366696 1743.813794 
L 7768.024338 1743.813794 
L 7768.024338 1726.971366 
z
M 7795.308909 1737.464495 
L 7795.308909 1738.61235 
L 7785.869786 1738.61235 
Q 7786.01417 1740.034536 7786.894914 1740.745628 
Q 7787.775659 1741.456721 7789.353057 1741.456721 
Q 7790.627248 1741.456721 7791.962803 1741.077712 
Q 7793.301967 1740.698703 7794.713324 1739.933467 
L 7794.713324 1743.044948 
Q 7793.28031 1743.586389 7791.847296 1743.864329 
Q 7790.414282 1744.142269 7788.981267 1744.142269 
Q 7785.55214 1744.142269 7783.649877 1742.398828 
Q 7781.751224 1740.655388 7781.751224 1737.50781 
Q 7781.751224 1734.417986 7783.617391 1732.649279 
Q 7785.483558 1730.876962 7788.757472 1730.876962 
Q 7791.735398 1730.876962 7793.522154 1732.670936 
Q 7795.308909 1734.461302 7795.308909 1737.464495 
z
M 7791.157861 1736.121721 
Q 7791.157861 1734.970256 7790.486474 1734.266383 
Q 7789.815087 1733.5589 7788.732205 1733.5589 
Q 7787.559082 1733.5589 7786.826332 1734.219458 
Q 7786.093582 1734.880016 7785.913101 1736.121721 
L 7791.157861 1736.121721 
z
M 7810.976861 1737.464495 
L 7810.976861 1738.61235 
L 7801.537738 1738.61235 
Q 7801.682122 1740.034536 7802.562866 1740.745628 
Q 7803.443611 1741.456721 7805.021009 1741.456721 
Q 7806.2952 1741.456721 7807.630755 1741.077712 
Q 7808.969919 1740.698703 7810.381276 1739.933467 
L 7810.381276 1743.044948 
Q 7808.948262 1743.586389 7807.515248 1743.864329 
Q 7806.082234 1744.142269 7804.649219 1744.142269 
Q 7801.220092 1744.142269 7799.317829 1742.398828 
Q 7797.419176 1740.655388 7797.419176 1737.50781 
Q 7797.419176 1734.417986 7799.285343 1732.649279 
Q 7801.15151 1730.876962 7804.425424 1730.876962 
Q 7807.40335 1730.876962 7809.190105 1732.670936 
Q 7810.976861 1734.461302 7810.976861 1737.464495 
z
M 7806.825813 1736.121721 
Q 7806.825813 1734.970256 7806.154426 1734.266383 
Q 7805.483039 1733.5589 7804.400157 1733.5589 
Q 7803.227034 1733.5589 7802.494284 1734.219458 
Q 7801.761534 1734.880016 7801.581053 1736.121721 
L 7806.825813 1736.121721 
z
M 7818.443785 1727.592219 
L 7818.443785 1731.180169 
L 7822.609272 1731.180169 
L 7822.609272 1734.067855 
L 7818.443785 1734.067855 
L 7818.443785 1739.424512 
Q 7818.443785 1740.305256 7818.793917 1740.615682 
Q 7819.144049 1740.926109 7820.183616 1740.926109 
L 7822.25914 1740.926109 
L 7822.25914 1743.813794 
L 7818.793917 1743.813794 
Q 7816.404357 1743.813794 7815.404496 1742.817543 
Q 7814.408244 1741.817682 7814.408244 1739.424512 
L 7814.408244 1734.067855 
L 7812.397693 1734.067855 
L 7812.397693 1731.180169 
L 7814.408244 1731.180169 
L 7814.408244 1727.592219 
L 7818.443785 1727.592219 
z
" clip-path="url(#p4e83fc110f)" style="fill: #fffafa"/>
   </g>
   <g id="text_9">
    <!-- Constellation Religion : 2 communautés, 8 onchois -->
    <g style="fill: #ffffff" transform="translate(2937.055469 1094.315625) scale(1.3 -1.3)">
     <defs>
      <path id="DejaVuSerif-Bold-43" d="M 4769 1331 
Q 4584 609 4106 259 
Q 3628 -91 2822 -91 
Q 1641 -91 955 561 
Q 269 1213 269 2328 
Q 269 3447 955 4098 
Q 1641 4750 2822 4750 
Q 3238 4750 3688 4650 
Q 4138 4550 4641 4347 
L 4641 3200 
L 4244 3200 
Q 4122 3788 3800 4080 
Q 3478 4372 2950 4372 
Q 2269 4372 1937 3870 
Q 1606 3369 1606 2328 
Q 1606 1288 1937 788 
Q 2269 288 2956 288 
Q 3422 288 3717 547 
Q 4013 806 4147 1331 
L 4769 1331 
z
" transform="scale(0.015625)"/>
      <path id="DejaVuSerif-Bold-6f" d="M 2138 263 
Q 2488 263 2630 563 
Q 2772 863 2772 1663 
Q 2772 2463 2631 2761 
Q 2491 3059 2138 3059 
Q 1784 3059 1640 2757 
Q 1497 2456 1497 1663 
Q 1497 869 1640 566 
Q 1784 263 2138 263 
z
M 2138 -91 
Q 1259 -91 761 376 
Q 263 844 263 1663 
Q 263 2484 761 2948 
Q 1259 3413 2138 3413 
Q 3019 3413 3516 2948 
Q 4013 2484 4013 1663 
Q 4013 844 3514 376 
Q 3016 -91 2138 -91 
z
" transform="scale(0.015625)"/>
      <path id="DejaVuSerif-Bold-6e" d="M 219 0 
L 219 378 
L 691 378 
L 691 2944 
L 219 2944 
L 219 3322 
L 1797 3322 
L 1797 2853 
Q 1997 3150 2253 3281 
Q 2509 3413 2900 3413 
Q 3459 3413 3745 3083 
Q 4031 2753 4031 2113 
L 4031 378 
L 4506 378 
L 4506 0 
L 2522 0 
L 2522 378 
L 2925 378 
L 2925 2144 
Q 2925 2566 2817 2730 
Q 2709 2894 2444 2894 
Q 2109 2894 1953 2648 
Q 1797 2403 1797 1869 
L 1797 378 
L 2203 378 
L 2203 0 
L 219 0 
z
" transform="scale(0.015625)"/>
      <path id="DejaVuSerif-Bold-73" d="M 300 97 
L 300 1025 
L 653 1025 
Q 697 653 931 458 
Q 1166 263 1569 263 
Q 1906 263 2086 380 
Q 2266 497 2266 716 
Q 2266 916 2152 1025 
Q 2038 1134 1709 1216 
L 1253 1331 
Q 738 1459 506 1698 
Q 275 1938 275 2344 
Q 275 2884 650 3148 
Q 1025 3413 1806 3413 
Q 2100 3413 2433 3364 
Q 2766 3316 3169 3213 
L 3169 2375 
L 2816 2375 
Q 2788 2716 2573 2887 
Q 2359 3059 1959 3059 
Q 1622 3059 1448 2951 
Q 1275 2844 1275 2638 
Q 1275 2469 1375 2372 
Q 1475 2275 1734 2209 
L 2188 2094 
Q 2841 1928 3091 1684 
Q 3341 1441 3341 1006 
Q 3341 444 2939 176 
Q 2538 -91 1691 -91 
Q 1381 -91 1034 -44 
Q 688 3 300 97 
z
" transform="scale(0.015625)"/>
      <path id="DejaVuSerif-Bold-74" d="M 634 2944 
L 153 2944 
L 153 3322 
L 634 3322 
L 634 4353 
L 1741 4353 
L 1741 3322 
L 2663 3322 
L 2663 2944 
L 1741 2944 
L 1741 909 
Q 1741 475 1809 369 
Q 1878 263 2059 263 
Q 2259 263 2356 397 
Q 2453 531 2459 813 
L 2925 813 
Q 2897 313 2651 111 
Q 2406 -91 1806 -91 
Q 1122 -91 878 123 
Q 634 338 634 909 
L 634 2944 
z
" transform="scale(0.015625)"/>
      <path id="DejaVuSerif-Bold-65" d="M 2566 1875 
Q 2566 2531 2444 2795 
Q 2322 3059 2028 3059 
Q 1744 3059 1620 2800 
Q 1497 2541 1497 1931 
L 1497 1875 
L 2566 1875 
z
M 3781 1503 
L 1497 1503 
L 1497 1478 
Q 1497 834 1690 548 
Q 1884 263 2316 263 
Q 2675 263 2897 453 
Q 3119 644 3181 1006 
L 3700 1006 
Q 3566 441 3166 175 
Q 2766 -91 2047 -91 
Q 1184 -91 723 364 
Q 263 819 263 1663 
Q 263 2488 734 2950 
Q 1206 3413 2047 3413 
Q 2872 3413 3312 2927 
Q 3753 2441 3781 1503 
z
" transform="scale(0.015625)"/>
      <path id="DejaVuSerif-Bold-6c" d="M 1797 378 
L 2272 378 
L 2272 0 
L 219 0 
L 219 378 
L 691 378 
L 691 4488 
L 219 4488 
L 219 4863 
L 1797 4863 
L 1797 378 
z
" transform="scale(0.015625)"/>
      <path id="DejaVuSerif-Bold-61" d="M 3525 2041 
L 3525 378 
L 4000 378 
L 4000 0 
L 2419 0 
L 2419 422 
Q 2200 159 1931 34 
Q 1663 -91 1319 -91 
Q 809 -91 536 182 
Q 263 456 263 966 
Q 263 1525 655 1803 
Q 1047 2081 1838 2081 
L 2419 2081 
L 2419 2278 
Q 2419 2681 2228 2873 
Q 2038 3066 1638 3066 
Q 1306 3066 1126 2930 
Q 947 2794 872 2484 
L 519 2484 
L 519 3200 
Q 816 3306 1134 3359 
Q 1453 3413 1806 3413 
Q 2697 3413 3111 3081 
Q 3525 2750 3525 2041 
z
M 2419 1044 
L 2419 1709 
L 2003 1709 
Q 1694 1709 1528 1540 
Q 1363 1372 1363 1056 
Q 1363 741 1483 584 
Q 1603 428 1850 428 
Q 2106 428 2262 597 
Q 2419 766 2419 1044 
z
" transform="scale(0.015625)"/>
      <path id="DejaVuSerif-Bold-69" d="M 588 4263 
Q 588 4516 763 4689 
Q 938 4863 1191 4863 
Q 1438 4863 1611 4689 
Q 1784 4516 1784 4263 
Q 1784 4016 1611 3842 
Q 1438 3669 1191 3669 
Q 938 3669 763 3841 
Q 588 4013 588 4263 
z
M 1797 378 
L 2272 378 
L 2272 0 
L 219 0 
L 219 378 
L 691 378 
L 691 2944 
L 219 2944 
L 219 3322 
L 1797 3322 
L 1797 378 
z
" transform="scale(0.015625)"/>
      <path id="DejaVuSerif-Bold-20" transform="scale(0.015625)"/>
      <path id="DejaVuSerif-Bold-52" d="M 3397 2278 
Q 3675 2238 3865 2094 
Q 4056 1950 4197 1678 
L 4878 378 
L 5356 378 
L 5356 0 
L 3822 0 
L 3078 1409 
Q 2863 1847 2711 1967 
Q 2559 2088 2291 2088 
L 2100 2088 
L 2100 378 
L 2700 378 
L 2700 0 
L 300 0 
L 300 378 
L 897 378 
L 897 4288 
L 300 4288 
L 300 4666 
L 2963 4666 
Q 3775 4666 4217 4339 
Q 4659 4013 4659 3413 
Q 4659 2925 4345 2642 
Q 4031 2359 3397 2278 
z
M 2100 2463 
L 2509 2463 
Q 2947 2463 3183 2700 
Q 3419 2938 3419 3378 
Q 3419 3819 3183 4053 
Q 2947 4288 2509 4288 
L 2100 4288 
L 2100 2463 
z
" transform="scale(0.015625)"/>
      <path id="DejaVuSerif-Bold-67" d="M 3853 2944 
L 3853 44 
Q 3853 -656 3354 -1039 
Q 2856 -1422 1947 -1422 
Q 1616 -1422 1275 -1370 
Q 934 -1319 575 -1216 
L 575 -422 
L 928 -422 
Q 975 -750 1192 -909 
Q 1409 -1069 1813 -1069 
Q 2325 -1069 2536 -823 
Q 2747 -578 2747 44 
L 2747 422 
Q 2606 163 2367 36 
Q 2128 -91 1778 -91 
Q 1072 -91 667 378 
Q 263 847 263 1663 
Q 263 2481 667 2947 
Q 1072 3413 1778 3413 
Q 2128 3413 2367 3286 
Q 2606 3159 2747 2900 
L 2747 3322 
L 4325 3322 
L 4325 2944 
L 3853 2944 
z
M 2747 1825 
Q 2747 2406 2597 2665 
Q 2447 2925 2119 2925 
Q 1775 2925 1636 2651 
Q 1497 2378 1497 1663 
Q 1497 947 1637 672 
Q 1778 397 2119 397 
Q 2447 397 2597 656 
Q 2747 916 2747 1497 
L 2747 1825 
z
" transform="scale(0.015625)"/>
      <path id="DejaVuSerif-Bold-3a" d="M 588 2541 
Q 588 2788 761 2963 
Q 934 3138 1178 3138 
Q 1422 3138 1597 2961 
Q 1772 2784 1772 2541 
Q 1772 2297 1598 2125 
Q 1425 1953 1178 1953 
Q 931 1953 759 2125 
Q 588 2297 588 2541 
z
M 588 506 
Q 588 750 761 925 
Q 934 1100 1178 1100 
Q 1422 1100 1597 925 
Q 1772 750 1772 506 
Q 1772 259 1597 84 
Q 1422 -91 1178 -91 
Q 934 -91 761 84 
Q 588 259 588 506 
z
" transform="scale(0.015625)"/>
      <path id="DejaVuSerif-Bold-32" d="M 844 3513 
L 469 3513 
L 469 4519 
Q 850 4634 1223 4692 
Q 1597 4750 1978 4750 
Q 2869 4750 3367 4386 
Q 3866 4022 3866 3372 
Q 3866 2909 3591 2542 
Q 3316 2175 2541 1672 
L 1241 819 
L 3450 819 
L 3450 1369 
L 3878 1369 
L 3878 0 
L 428 0 
L 428 763 
L 1119 1241 
Q 2003 1850 2297 2278 
Q 2591 2706 2591 3278 
Q 2591 3819 2367 4101 
Q 2144 4384 1716 4384 
Q 1347 4384 1125 4161 
Q 903 3938 844 3513 
z
" transform="scale(0.015625)"/>
      <path id="DejaVuSerif-Bold-63" d="M 3609 1038 
Q 3491 469 3123 189 
Q 2756 -91 2125 -91 
Q 1238 -91 750 368 
Q 263 828 263 1663 
Q 263 2488 744 2950 
Q 1225 3413 2081 3413 
Q 2428 3413 2781 3347 
Q 3134 3281 3500 3150 
L 3500 2228 
L 3150 2228 
Q 3100 2650 2903 2854 
Q 2706 3059 2350 3059 
Q 1888 3059 1692 2746 
Q 1497 2434 1497 1663 
Q 1497 909 1687 586 
Q 1878 263 2309 263 
Q 2644 263 2845 463 
Q 3047 663 3091 1038 
L 3609 1038 
z
" transform="scale(0.015625)"/>
      <path id="DejaVuSerif-Bold-6d" d="M 3884 2778 
Q 4116 3109 4384 3261 
Q 4653 3413 5013 3413 
Q 5584 3413 5867 3089 
Q 6150 2766 6150 2113 
L 6150 378 
L 6625 378 
L 6625 0 
L 4647 0 
L 4647 378 
L 5044 378 
L 5044 1947 
Q 5044 2569 4948 2731 
Q 4853 2894 4594 2894 
Q 4300 2894 4137 2667 
Q 3975 2441 3975 2022 
L 3975 378 
L 4372 378 
L 4372 0 
L 2472 0 
L 2472 378 
L 2869 378 
L 2869 1947 
Q 2869 2569 2772 2731 
Q 2675 2894 2419 2894 
Q 2122 2894 1959 2667 
Q 1797 2441 1797 2022 
L 1797 378 
L 2194 378 
L 2194 0 
L 219 0 
L 219 378 
L 691 378 
L 691 2944 
L 219 2944 
L 219 3322 
L 1797 3322 
L 1797 2853 
Q 1991 3144 2241 3278 
Q 2491 3413 2834 3413 
Q 3241 3413 3494 3258 
Q 3747 3103 3884 2778 
z
" transform="scale(0.015625)"/>
      <path id="DejaVuSerif-Bold-75" d="M 3963 3322 
L 3963 378 
L 4434 378 
L 4434 0 
L 2853 0 
L 2853 469 
Q 2656 172 2400 40 
Q 2144 -91 1753 -91 
Q 1194 -91 908 239 
Q 622 569 622 1209 
L 622 2944 
L 147 2944 
L 147 3322 
L 1728 3322 
L 1728 1381 
Q 1728 763 1831 595 
Q 1934 428 2209 428 
Q 2544 428 2698 675 
Q 2853 922 2853 1459 
L 2853 2944 
L 2450 2944 
L 2450 3322 
L 3963 3322 
z
" transform="scale(0.015625)"/>
      <path id="DejaVuSerif-Bold-e9" d="M 2566 1875 
Q 2566 2531 2444 2795 
Q 2322 3059 2028 3059 
Q 1744 3059 1620 2800 
Q 1497 2541 1497 1931 
L 1497 1875 
L 2566 1875 
z
M 3781 1503 
L 1497 1503 
L 1497 1478 
Q 1497 834 1690 548 
Q 1884 263 2316 263 
Q 2675 263 2897 453 
Q 3119 644 3181 1006 
L 3700 1006 
Q 3566 441 3166 175 
Q 2766 -91 2047 -91 
Q 1184 -91 723 364 
Q 263 819 263 1663 
Q 263 2488 734 2950 
Q 1206 3413 2047 3413 
Q 2872 3413 3312 2927 
Q 3753 2441 3781 1503 
z
M 2320 5119 
L 3191 5119 
L 2026 3944 
L 1513 3944 
L 2320 5119 
z
" transform="scale(0.015625)"/>
      <path id="DejaVuSerif-Bold-2c" d="M 84 -616 
Q 409 -353 562 -28 
Q 716 297 716 728 
L 716 997 
L 1606 997 
L 1606 972 
Q 1606 281 1317 -217 
Q 1028 -716 428 -1056 
L 84 -616 
z
" transform="scale(0.015625)"/>
      <path id="DejaVuSerif-Bold-38" d="M 2975 2484 
Q 3531 2394 3820 2075 
Q 4109 1756 4109 1241 
Q 4109 597 3623 253 
Q 3138 -91 2222 -91 
Q 1306 -91 818 253 
Q 331 597 331 1241 
Q 331 1756 622 2075 
Q 913 2394 1466 2484 
Q 975 2597 731 2861 
Q 488 3125 488 3531 
Q 488 4125 931 4437 
Q 1375 4750 2222 4750 
Q 3066 4750 3511 4437 
Q 3956 4125 3956 3531 
Q 3956 3125 3711 2861 
Q 3466 2597 2975 2484 
z
M 2747 3519 
Q 2747 4013 2628 4198 
Q 2509 4384 2222 4384 
Q 1931 4384 1814 4198 
Q 1697 4013 1697 3519 
Q 1697 3028 1814 2845 
Q 1931 2663 2222 2663 
Q 2513 2663 2630 2845 
Q 2747 3028 2747 3519 
z
M 2869 1294 
Q 2869 1866 2723 2081 
Q 2578 2297 2222 2297 
Q 1863 2297 1719 2081 
Q 1575 1866 1575 1294 
Q 1575 716 1720 495 
Q 1866 275 2222 275 
Q 2575 275 2722 495 
Q 2869 716 2869 1294 
z
" transform="scale(0.015625)"/>
      <path id="DejaVuSerif-Bold-68" d="M 219 0 
L 219 378 
L 691 378 
L 691 4488 
L 197 4488 
L 197 4863 
L 1797 4863 
L 1797 2853 
Q 1997 3150 2253 3281 
Q 2509 3413 2900 3413 
Q 3459 3413 3745 3083 
Q 4031 2753 4031 2113 
L 4031 378 
L 4506 378 
L 4506 0 
L 2522 0 
L 2522 378 
L 2925 378 
L 2925 2144 
Q 2925 2566 2817 2730 
Q 2709 2894 2444 2894 
Q 2109 2894 1953 2648 
Q 1797 2403 1797 1869 
L 1797 378 
L 2203 378 
L 2203 0 
L 219 0 
z
" transform="scale(0.015625)"/>
     </defs>
     <use xlink:href="#DejaVuSerif-Bold-43"/>
     <use xlink:href="#DejaVuSerif-Bold-6f" x="79.589844"/>
     <use xlink:href="#DejaVuSerif-Bold-6e" x="146.289062"/>
     <use xlink:href="#DejaVuSerif-Bold-73" x="218.994141"/>
     <use xlink:href="#DejaVuSerif-Bold-74" x="275.292969"/>
     <use xlink:href="#DejaVuSerif-Bold-65" x="321.484375"/>
     <use xlink:href="#DejaVuSerif-Bold-6c" x="385.107422"/>
     <use xlink:href="#DejaVuSerif-Bold-6c" x="423.095703"/>
     <use xlink:href="#DejaVuSerif-Bold-61" x="461.083984"/>
     <use xlink:href="#DejaVuSerif-Bold-74" x="525.878906"/>
     <use xlink:href="#DejaVuSerif-Bold-69" x="572.070312"/>
     <use xlink:href="#DejaVuSerif-Bold-6f" x="610.058594"/>
     <use xlink:href="#DejaVuSerif-Bold-6e" x="676.757812"/>
     <use xlink:href="#DejaVuSerif-Bold-20" x="749.462891"/>
     <use xlink:href="#DejaVuSerif-Bold-52" x="784.277344"/>
     <use xlink:href="#DejaVuSerif-Bold-65" x="867.382812"/>
     <use xlink:href="#DejaVuSerif-Bold-6c" x="931.005859"/>
     <use xlink:href="#DejaVuSerif-Bold-69" x="968.994141"/>
     <use xlink:href="#DejaVuSerif-Bold-67" x="1006.982422"/>
     <use xlink:href="#DejaVuSerif-Bold-69" x="1076.904297"/>
     <use xlink:href="#DejaVuSerif-Bold-6f" x="1114.892578"/>
     <use xlink:href="#DejaVuSerif-Bold-6e" x="1181.591797"/>
     <use xlink:href="#DejaVuSerif-Bold-20" x="1254.296875"/>
     <use xlink:href="#DejaVuSerif-Bold-3a" x="1289.111328"/>
     <use xlink:href="#DejaVuSerif-Bold-20" x="1326.025391"/>
     <use xlink:href="#DejaVuSerif-Bold-32" x="1360.839844"/>
     <use xlink:href="#DejaVuSerif-Bold-20" x="1430.419922"/>
     <use xlink:href="#DejaVuSerif-Bold-63" x="1465.234375"/>
     <use xlink:href="#DejaVuSerif-Bold-6f" x="1526.123047"/>
     <use xlink:href="#DejaVuSerif-Bold-6d" x="1592.822266"/>
     <use xlink:href="#DejaVuSerif-Bold-6d" x="1698.632812"/>
     <use xlink:href="#DejaVuSerif-Bold-75" x="1804.443359"/>
     <use xlink:href="#DejaVuSerif-Bold-6e" x="1877.148438"/>
     <use xlink:href="#DejaVuSerif-Bold-61" x="1949.853516"/>
     <use xlink:href="#DejaVuSerif-Bold-75" x="2014.648438"/>
     <use xlink:href="#DejaVuSerif-Bold-74" x="2087.353516"/>
     <use xlink:href="#DejaVuSerif-Bold-e9" x="2133.544922"/>
     <use xlink:href="#DejaVuSerif-Bold-73" x="2197.167969"/>
     <use xlink:href="#DejaVuSerif-Bold-2c" x="2253.466797"/>
     <use xlink:href="#DejaVuSerif-Bold-20" x="2288.28125"/>
     <use xlink:href="#DejaVuSerif-Bold-38" x="2323.095703"/>
     <use xlink:href="#DejaVuSerif-Bold-20" x="2392.675781"/>
     <use xlink:href="#DejaVuSerif-Bold-6f" x="2427.490234"/>
     <use xlink:href="#DejaVuSerif-Bold-6e" x="2494.189453"/>
     <use xlink:href="#DejaVuSerif-Bold-63" x="2566.894531"/>
     <use xlink:href="#DejaVuSerif-Bold-68" x="2627.783203"/>
     <use xlink:href="#DejaVuSerif-Bold-6f" x="2700.488281"/>
     <use xlink:href="#DejaVuSerif-Bold-69" x="2767.1875"/>
     <use xlink:href="#DejaVuSerif-Bold-73" x="2805.175781"/>
    </g>
   </g>
  </g>
 </g>
 <defs>
  <clipPath id="p4e83fc110f">
   <rect x="1170" y="1123.2" width="7254" height="7207.2"/>
  </clipPath>
 </defs>
</svg>
