<?xml version="1.0" encoding="utf-8" standalone="no"?>
<!DOCTYPE svg PUBLIC "-//W3C//DTD SVG 1.1//EN"
  "http://www.w3.org/Graphics/SVG/1.1/DTD/svg11.dtd">
<svg xmlns:xlink="http://www.w3.org/1999/xlink" width="9360pt" height="9360pt" viewBox="0 0 9360 9360" xmlns="http://www.w3.org/2000/svg" version="1.1">
 <metadata>
  <rdf:RDF xmlns:dc="http://purl.org/dc/elements/1.1/" xmlns:cc="http://creativecommons.org/ns#" xmlns:rdf="http://www.w3.org/1999/02/22-rdf-syntax-ns#">
   <cc:Work>
    <dc:type rdf:resource="http://purl.org/dc/dcmitype/StillImage"/>
    <dc:date>2024-01-10T01:10:44.513916</dc:date>
    <dc:format>image/svg+xml</dc:format>
    <dc:creator>
     <cc:Agent>
      <dc:title>Matplotlib v3.8.2, https://matplotlib.org/</dc:title>
     </cc:Agent>
    </dc:creator>
   </cc:Work>
  </rdf:RDF>
 </metadata>
 <defs>
  <style type="text/css">*{stroke-linejoin: round; stroke-linecap: butt}</style>
 </defs>
 <g id="figure_1">
  <g id="patch_1">
   <path d="M 0 9360 
L 9360 9360 
L 9360 0 
L 0 0 
z
"/>
  </g>
  <g id="axes_1">
   <g id="patch_2">
    <path d="M 1806.921417 7709.407716 
Q 2467.363047 8099.976734 3126.680832 7707.512988 
" clip-path="url(#p84205476b5)" style="fill: none; stroke: #000080; stroke-opacity: 0.730423; stroke-width: 7.304227; stroke-linecap: round"/>
   </g>
   <g id="patch_3">
    <path d="M 7797.632824 4587.553338 
Q 8397.32996 3024.737289 7306.342493 1755.17843 
" clip-path="url(#p84205476b5)" style="fill: none; stroke: #800000; stroke-opacity: 0.269577; stroke-width: 2.695773; stroke-linecap: round"/>
   </g>
   <g id="patch_4">
    <path d="M 7294.225687 1754.372888 
Q 6465.712022 2494.250547 6721.279119 3575.240342 
" clip-path="url(#p84205476b5)" style="fill: none; stroke: #800000; stroke-opacity: 0.269577; stroke-width: 2.695773; stroke-linecap: round"/>
   </g>
   <g id="PathCollection_1">
    <path d="M 1799.479339 7715.58842 
C 1802.292242 7715.58842 1804.990316 7714.470841 1806.979339 7712.481818 
C 1808.968362 7710.492795 1810.085941 7707.794722 1810.085941 7704.981818 
C 1810.085941 7702.168915 1808.968362 7699.470841 1806.979339 7697.481818 
C 1804.990316 7695.492795 1802.292242 7694.375216 1799.479339 7694.375216 
C 1796.666435 7694.375216 1793.968362 7695.492795 1791.979339 7697.481818 
C 1789.990316 7699.470841 1788.872737 7702.168915 1788.872737 7704.981818 
C 1788.872737 7707.794722 1789.990316 7710.492795 1791.979339 7712.481818 
C 1793.968362 7714.470841 1796.666435 7715.58842 1799.479339 7715.58842 
z
" clip-path="url(#p84205476b5)" style="fill: #000080; fill-opacity: 0.894202; stroke: #000080; stroke-opacity: 0.894202"/>
    <path d="M 3134.109252 7716.759359 
C 3137.740695 7716.759359 3141.223893 7715.316572 3143.791711 7712.748754 
C 3146.359529 7710.180936 3147.802316 7706.697738 3147.802316 7703.066295 
C 3147.802316 7699.434852 3146.359529 7695.951655 3143.791711 7693.383837 
C 3141.223893 7690.816019 3137.740695 7689.373232 3134.109252 7689.373232 
C 3130.477809 7689.373232 3126.994612 7690.816019 3124.426794 7693.383837 
C 3121.858976 7695.951655 3120.416188 7699.434852 3120.416188 7703.066295 
C 3120.416188 7706.697738 3121.858976 7710.180936 3124.426794 7712.748754 
C 3126.994612 7715.316572 3130.477809 7716.759359 3134.109252 7716.759359 
z
" clip-path="url(#p84205476b5)" style="fill: #000080; stroke: #000080"/>
    <path d="M 7794.520661 4604.296426 
C 7796.817387 4604.296426 7799.020355 4603.383927 7800.644386 4601.759897 
C 7802.268416 4600.135866 7803.180915 4597.932899 7803.180915 4595.636172 
C 7803.180915 4593.339446 7802.268416 4591.136479 7800.644386 4589.512448 
C 7799.020355 4587.888417 7796.817387 4586.975918 7794.520661 4586.975918 
C 7792.223935 4586.975918 7790.020967 4587.888417 7788.396937 4589.512448 
C 7786.772906 4591.136479 7785.860407 4593.339446 7785.860407 4595.636172 
C 7785.860407 4597.932899 7786.772906 4600.135866 7788.396937 4601.759897 
C 7790.020967 4603.383927 7792.223935 4604.296426 7794.520661 4604.296426 
z
" clip-path="url(#p84205476b5)" style="fill: #800000; fill-opacity: 0.810226; stroke: #800000; stroke-opacity: 0.810226"/>
    <path d="M 7300.692009 1760.865631 
C 7303.94007 1760.865631 7307.055537 1759.575162 7309.352263 1757.278436 
C 7311.648989 1754.98171 7312.939458 1751.866243 7312.939458 1748.618182 
C 7312.939458 1745.37012 7311.648989 1742.254654 7309.352263 1739.957928 
C 7307.055537 1737.661202 7303.94007 1736.370733 7300.692009 1736.370733 
C 7297.443948 1736.370733 7294.328481 1737.661202 7292.031755 1739.957928 
C 7289.735029 1742.254654 7288.44456 1745.37012 7288.44456 1748.618182 
C 7288.44456 1751.866243 7289.735029 1754.98171 7292.031755 1757.278436 
C 7294.328481 1759.575162 7297.443948 1760.865631 7300.692009 1760.865631 
z
" clip-path="url(#p84205476b5)" style="fill: #800000; fill-opacity: 0.953784; stroke: #800000; stroke-opacity: 0.953784"/>
    <path d="M 6723.285256 3592.321777 
C 6725.581982 3592.321777 6727.78495 3591.409278 6729.40898 3589.785247 
C 6731.033011 3588.161217 6731.94551 3585.958249 6731.94551 3583.661523 
C 6731.94551 3581.364797 6731.033011 3579.161829 6729.40898 3577.537799 
C 6727.78495 3575.913768 6725.581982 3575.001269 6723.285256 3575.001269 
C 6720.98853 3575.001269 6718.785562 3575.913768 6717.161532 3577.537799 
C 6715.537501 3579.161829 6714.625002 3581.364797 6714.625002 3583.661523 
C 6714.625002 3585.958249 6715.537501 3588.161217 6717.161532 3589.785247 
C 6718.785562 3591.409278 6720.98853 3592.321777 6723.285256 3592.321777 
z
" clip-path="url(#p84205476b5)" style="fill: #800000; fill-opacity: 0.810226; stroke: #800000; stroke-opacity: 0.810226"/>
   </g>
   <g id="text_1">
    <g clip-path="url(#p84205476b5)">
     <!-- Bene -->
     <g style="fill: #fffafa" transform="translate(1755.184201 7698.473005) scale(0.312971 -0.312971)">
      <defs>
       <path id="DejaVuSans-Bold-42" d="M 2456 2859 
Q 2741 2859 2887 2984 
Q 3034 3109 3034 3353 
Q 3034 3594 2887 3720 
Q 2741 3847 2456 3847 
L 1791 3847 
L 1791 2859 
L 2456 2859 
z
M 2497 819 
Q 2859 819 3042 972 
Q 3225 1125 3225 1434 
Q 3225 1738 3044 1889 
Q 2863 2041 2497 2041 
L 1791 2041 
L 1791 819 
L 2497 819 
z
M 3616 2497 
Q 4003 2384 4215 2081 
Q 4428 1778 4428 1338 
Q 4428 663 3972 331 
Q 3516 0 2584 0 
L 588 0 
L 588 4666 
L 2394 4666 
Q 3366 4666 3802 4372 
Q 4238 4078 4238 3431 
Q 4238 3091 4078 2852 
Q 3919 2613 3616 2497 
z
" transform="scale(0.015625)"/>
       <path id="DejaVuSans-Bold-65" d="M 4031 1759 
L 4031 1441 
L 1416 1441 
Q 1456 1047 1700 850 
Q 1944 653 2381 653 
Q 2734 653 3104 758 
Q 3475 863 3866 1075 
L 3866 213 
Q 3469 63 3072 -14 
Q 2675 -91 2278 -91 
Q 1328 -91 801 392 
Q 275 875 275 1747 
Q 275 2603 792 3093 
Q 1309 3584 2216 3584 
Q 3041 3584 3536 3087 
Q 4031 2591 4031 1759 
z
M 2881 2131 
Q 2881 2450 2695 2645 
Q 2509 2841 2209 2841 
Q 1884 2841 1681 2658 
Q 1478 2475 1428 2131 
L 2881 2131 
z
" transform="scale(0.015625)"/>
       <path id="DejaVuSans-Bold-6e" d="M 4056 2131 
L 4056 0 
L 2931 0 
L 2931 347 
L 2931 1631 
Q 2931 2084 2911 2256 
Q 2891 2428 2841 2509 
Q 2775 2619 2662 2680 
Q 2550 2741 2406 2741 
Q 2056 2741 1856 2470 
Q 1656 2200 1656 1722 
L 1656 0 
L 538 0 
L 538 3500 
L 1656 3500 
L 1656 2988 
Q 1909 3294 2193 3439 
Q 2478 3584 2822 3584 
Q 3428 3584 3742 3212 
Q 4056 2841 4056 2131 
z
" transform="scale(0.015625)"/>
      </defs>
      <use xlink:href="#DejaVuSans-Bold-42"/>
      <use xlink:href="#DejaVuSans-Bold-65" x="76.220703"/>
      <use xlink:href="#DejaVuSans-Bold-6e" x="144.042969"/>
      <use xlink:href="#DejaVuSans-Bold-65" x="215.234375"/>
     </g>
    </g>
   </g>
   <g id="text_2">
    <g clip-path="url(#p84205476b5)">
     <!-- Hapananas -->
     <g style="fill: #fffafa" transform="translate(3024.367846 7695.787389) scale(0.35 -0.35)">
      <defs>
       <path id="DejaVuSans-Bold-48" d="M 588 4666 
L 1791 4666 
L 1791 2888 
L 3566 2888 
L 3566 4666 
L 4769 4666 
L 4769 0 
L 3566 0 
L 3566 1978 
L 1791 1978 
L 1791 0 
L 588 0 
L 588 4666 
z
" transform="scale(0.015625)"/>
       <path id="DejaVuSans-Bold-61" d="M 2106 1575 
Q 1756 1575 1579 1456 
Q 1403 1338 1403 1106 
Q 1403 894 1545 773 
Q 1688 653 1941 653 
Q 2256 653 2472 879 
Q 2688 1106 2688 1447 
L 2688 1575 
L 2106 1575 
z
M 3816 1997 
L 3816 0 
L 2688 0 
L 2688 519 
Q 2463 200 2181 54 
Q 1900 -91 1497 -91 
Q 953 -91 614 226 
Q 275 544 275 1050 
Q 275 1666 698 1953 
Q 1122 2241 2028 2241 
L 2688 2241 
L 2688 2328 
Q 2688 2594 2478 2717 
Q 2269 2841 1825 2841 
Q 1466 2841 1156 2769 
Q 847 2697 581 2553 
L 581 3406 
Q 941 3494 1303 3539 
Q 1666 3584 2028 3584 
Q 2975 3584 3395 3211 
Q 3816 2838 3816 1997 
z
" transform="scale(0.015625)"/>
       <path id="DejaVuSans-Bold-70" d="M 1656 506 
L 1656 -1331 
L 538 -1331 
L 538 3500 
L 1656 3500 
L 1656 2988 
Q 1888 3294 2169 3439 
Q 2450 3584 2816 3584 
Q 3463 3584 3878 3070 
Q 4294 2556 4294 1747 
Q 4294 938 3878 423 
Q 3463 -91 2816 -91 
Q 2450 -91 2169 54 
Q 1888 200 1656 506 
z
M 2400 2772 
Q 2041 2772 1848 2508 
Q 1656 2244 1656 1747 
Q 1656 1250 1848 986 
Q 2041 722 2400 722 
Q 2759 722 2948 984 
Q 3138 1247 3138 1747 
Q 3138 2247 2948 2509 
Q 2759 2772 2400 2772 
z
" transform="scale(0.015625)"/>
       <path id="DejaVuSans-Bold-73" d="M 3272 3391 
L 3272 2541 
Q 2913 2691 2578 2766 
Q 2244 2841 1947 2841 
Q 1628 2841 1473 2761 
Q 1319 2681 1319 2516 
Q 1319 2381 1436 2309 
Q 1553 2238 1856 2203 
L 2053 2175 
Q 2913 2066 3209 1816 
Q 3506 1566 3506 1031 
Q 3506 472 3093 190 
Q 2681 -91 1863 -91 
Q 1516 -91 1145 -36 
Q 775 19 384 128 
L 384 978 
Q 719 816 1070 734 
Q 1422 653 1784 653 
Q 2113 653 2278 743 
Q 2444 834 2444 1013 
Q 2444 1163 2330 1236 
Q 2216 1309 1875 1350 
L 1678 1375 
Q 931 1469 631 1722 
Q 331 1975 331 2491 
Q 331 3047 712 3315 
Q 1094 3584 1881 3584 
Q 2191 3584 2531 3537 
Q 2872 3491 3272 3391 
z
" transform="scale(0.015625)"/>
      </defs>
      <use xlink:href="#DejaVuSans-Bold-48"/>
      <use xlink:href="#DejaVuSans-Bold-61" x="83.691406"/>
      <use xlink:href="#DejaVuSans-Bold-70" x="151.171875"/>
      <use xlink:href="#DejaVuSans-Bold-61" x="222.753906"/>
      <use xlink:href="#DejaVuSans-Bold-6e" x="290.234375"/>
      <use xlink:href="#DejaVuSans-Bold-61" x="361.425781"/>
      <use xlink:href="#DejaVuSans-Bold-6e" x="428.90625"/>
      <use xlink:href="#DejaVuSans-Bold-61" x="500.097656"/>
      <use xlink:href="#DejaVuSans-Bold-73" x="567.578125"/>
     </g>
    </g>
   </g>
   <g id="text_3">
    <g clip-path="url(#p84205476b5)">
     <!-- Okent -->
     <g style="fill: #fffafa" transform="translate(7746.921494 4589.738617) scale(0.283579 -0.283579)">
      <defs>
       <path id="DejaVuSans-Bold-4f" d="M 2719 3878 
Q 2169 3878 1866 3472 
Q 1563 3066 1563 2328 
Q 1563 1594 1866 1187 
Q 2169 781 2719 781 
Q 3272 781 3575 1187 
Q 3878 1594 3878 2328 
Q 3878 3066 3575 3472 
Q 3272 3878 2719 3878 
z
M 2719 4750 
Q 3844 4750 4481 4106 
Q 5119 3463 5119 2328 
Q 5119 1197 4481 553 
Q 3844 -91 2719 -91 
Q 1597 -91 958 553 
Q 319 1197 319 2328 
Q 319 3463 958 4106 
Q 1597 4750 2719 4750 
z
" transform="scale(0.015625)"/>
       <path id="DejaVuSans-Bold-6b" d="M 538 4863 
L 1656 4863 
L 1656 2216 
L 2944 3500 
L 4244 3500 
L 2534 1894 
L 4378 0 
L 3022 0 
L 1656 1459 
L 1656 0 
L 538 0 
L 538 4863 
z
" transform="scale(0.015625)"/>
       <path id="DejaVuSans-Bold-74" d="M 1759 4494 
L 1759 3500 
L 2913 3500 
L 2913 2700 
L 1759 2700 
L 1759 1216 
Q 1759 972 1856 886 
Q 1953 800 2241 800 
L 2816 800 
L 2816 0 
L 1856 0 
Q 1194 0 917 276 
Q 641 553 641 1216 
L 641 2700 
L 84 2700 
L 84 3500 
L 641 3500 
L 641 4494 
L 1759 4494 
z
" transform="scale(0.015625)"/>
      </defs>
      <use xlink:href="#DejaVuSans-Bold-4f"/>
      <use xlink:href="#DejaVuSans-Bold-6b" x="85.009766"/>
      <use xlink:href="#DejaVuSans-Bold-65" x="148.888672"/>
      <use xlink:href="#DejaVuSans-Bold-6e" x="216.710938"/>
      <use xlink:href="#DejaVuSans-Bold-74" x="287.902344"/>
     </g>
    </g>
   </g>
   <g id="text_4">
    <g clip-path="url(#p84205476b5)">
     <!-- John_Wayne_Gacy -->
     <g style="fill: #fffafa" transform="translate(7134.189201 1740.747225) scale(0.333825 -0.333825)">
      <defs>
       <path id="DejaVuSans-Bold-4a" d="M 588 4666 
L 1791 4666 
L 1791 453 
Q 1791 -419 1317 -850 
Q 844 -1281 -116 -1281 
L -359 -1281 
L -359 -372 
L -172 -372 
Q 203 -372 395 -162 
Q 588 47 588 453 
L 588 4666 
z
" transform="scale(0.015625)"/>
       <path id="DejaVuSans-Bold-6f" d="M 2203 2784 
Q 1831 2784 1636 2517 
Q 1441 2250 1441 1747 
Q 1441 1244 1636 976 
Q 1831 709 2203 709 
Q 2569 709 2762 976 
Q 2956 1244 2956 1747 
Q 2956 2250 2762 2517 
Q 2569 2784 2203 2784 
z
M 2203 3584 
Q 3106 3584 3614 3096 
Q 4122 2609 4122 1747 
Q 4122 884 3614 396 
Q 3106 -91 2203 -91 
Q 1297 -91 786 396 
Q 275 884 275 1747 
Q 275 2609 786 3096 
Q 1297 3584 2203 3584 
z
" transform="scale(0.015625)"/>
       <path id="DejaVuSans-Bold-68" d="M 4056 2131 
L 4056 0 
L 2931 0 
L 2931 347 
L 2931 1625 
Q 2931 2084 2911 2256 
Q 2891 2428 2841 2509 
Q 2775 2619 2662 2680 
Q 2550 2741 2406 2741 
Q 2056 2741 1856 2470 
Q 1656 2200 1656 1722 
L 1656 0 
L 538 0 
L 538 4863 
L 1656 4863 
L 1656 2988 
Q 1909 3294 2193 3439 
Q 2478 3584 2822 3584 
Q 3428 3584 3742 3212 
Q 4056 2841 4056 2131 
z
" transform="scale(0.015625)"/>
       <path id="DejaVuSans-Bold-5f" d="M 3200 -916 
L 3200 -1509 
L 0 -1509 
L 0 -916 
L 3200 -916 
z
" transform="scale(0.015625)"/>
       <path id="DejaVuSans-Bold-57" d="M 191 4666 
L 1344 4666 
L 2150 1275 
L 2950 4666 
L 4109 4666 
L 4909 1275 
L 5716 4666 
L 6859 4666 
L 5759 0 
L 4372 0 
L 3525 3547 
L 2688 0 
L 1300 0 
L 191 4666 
z
" transform="scale(0.015625)"/>
       <path id="DejaVuSans-Bold-79" d="M 78 3500 
L 1197 3500 
L 2138 1125 
L 2938 3500 
L 4056 3500 
L 2584 -331 
Q 2363 -916 2067 -1148 
Q 1772 -1381 1288 -1381 
L 641 -1381 
L 641 -647 
L 991 -647 
Q 1275 -647 1404 -556 
Q 1534 -466 1606 -231 
L 1638 -134 
L 78 3500 
z
" transform="scale(0.015625)"/>
       <path id="DejaVuSans-Bold-47" d="M 4781 347 
Q 4331 128 3847 18 
Q 3363 -91 2847 -91 
Q 1681 -91 1000 561 
Q 319 1213 319 2328 
Q 319 3456 1012 4103 
Q 1706 4750 2913 4750 
Q 3378 4750 3804 4662 
Q 4231 4575 4609 4403 
L 4609 3438 
Q 4219 3659 3833 3768 
Q 3447 3878 3059 3878 
Q 2341 3878 1952 3476 
Q 1563 3075 1563 2328 
Q 1563 1588 1938 1184 
Q 2313 781 3003 781 
Q 3191 781 3352 804 
Q 3513 828 3641 878 
L 3641 1784 
L 2906 1784 
L 2906 2591 
L 4781 2591 
L 4781 347 
z
" transform="scale(0.015625)"/>
       <path id="DejaVuSans-Bold-63" d="M 3366 3391 
L 3366 2478 
Q 3138 2634 2908 2709 
Q 2678 2784 2431 2784 
Q 1963 2784 1702 2511 
Q 1441 2238 1441 1747 
Q 1441 1256 1702 982 
Q 1963 709 2431 709 
Q 2694 709 2930 787 
Q 3166 866 3366 1019 
L 3366 103 
Q 3103 6 2833 -42 
Q 2563 -91 2291 -91 
Q 1344 -91 809 395 
Q 275 881 275 1747 
Q 275 2613 809 3098 
Q 1344 3584 2291 3584 
Q 2566 3584 2833 3536 
Q 3100 3488 3366 3391 
z
" transform="scale(0.015625)"/>
      </defs>
      <use xlink:href="#DejaVuSans-Bold-4a"/>
      <use xlink:href="#DejaVuSans-Bold-6f" x="37.207031"/>
      <use xlink:href="#DejaVuSans-Bold-68" x="105.908203"/>
      <use xlink:href="#DejaVuSans-Bold-6e" x="177.099609"/>
      <use xlink:href="#DejaVuSans-Bold-5f" x="248.291016"/>
      <use xlink:href="#DejaVuSans-Bold-57" x="298.291016"/>
      <use xlink:href="#DejaVuSans-Bold-61" x="404.96875"/>
      <use xlink:href="#DejaVuSans-Bold-79" x="469.324219"/>
      <use xlink:href="#DejaVuSans-Bold-6e" x="534.509766"/>
      <use xlink:href="#DejaVuSans-Bold-65" x="605.701172"/>
      <use xlink:href="#DejaVuSans-Bold-5f" x="673.523438"/>
      <use xlink:href="#DejaVuSans-Bold-47" x="723.523438"/>
      <use xlink:href="#DejaVuSans-Bold-61" x="805.603516"/>
      <use xlink:href="#DejaVuSans-Bold-63" x="873.083984"/>
      <use xlink:href="#DejaVuSans-Bold-79" x="932.361328"/>
     </g>
    </g>
   </g>
   <g id="text_5">
    <path d="M 6662.100886 3562.034199 
L 6667.054655 3562.034199 
L 6667.054655 3577.263273 
Q 6667.054655 3580.382642 6665.557004 3582.022082 
Q 6664.063784 3583.661523 6661.227995 3583.661523 
L 6658.773264 3583.661523 
L 6658.773264 3580.409227 
L 6659.632863 3580.409227 
Q 6661.046327 3580.409227 6661.573606 3579.771175 
Q 6662.100886 3579.133122 6662.100886 3577.263273 
L 6662.100886 3562.034199 
z
M 6662.100886 3555.994853 
L 6667.054655 3555.994853 
L 6667.054655 3560.040284 
L 6662.100886 3560.040284 
L 6662.100886 3555.994853 
z
M 6679.198702 3565.206738 
Q 6677.550399 3565.206738 6676.68637 3566.389794 
Q 6675.82234 3567.57285 6675.82234 3569.801603 
Q 6675.82234 3572.030356 6676.68637 3573.217843 
Q 6677.550399 3574.400899 6679.198702 3574.400899 
Q 6680.820419 3574.400899 6681.675586 3573.217843 
Q 6682.535185 3572.030356 6682.535185 3569.801603 
Q 6682.535185 3567.57285 6681.675586 3566.389794 
Q 6680.820419 3565.206738 6679.198702 3565.206738 
z
M 6679.198702 3561.662001 
Q 6683.199823 3561.662001 6685.450731 3563.824291 
Q 6687.701639 3565.982149 6687.701639 3569.801603 
Q 6687.701639 3573.625487 6685.450731 3575.787777 
Q 6683.199823 3577.945635 6679.198702 3577.945635 
Q 6675.184287 3577.945635 6672.920087 3575.787777 
Q 6670.655886 3573.625487 6670.655886 3569.801603 
Q 6670.655886 3565.982149 6672.920087 3563.824291 
Q 6675.184287 3561.662001 6679.198702 3561.662001 
z
M 6691.135048 3571.503076 
L 6691.135048 3562.034199 
L 6696.119834 3562.034199 
L 6696.119834 3563.585021 
Q 6696.119834 3564.843402 6696.106542 3566.748698 
Q 6696.093249 3568.653994 6696.093249 3569.287616 
Q 6696.093249 3571.157464 6696.190729 3571.981616 
Q 6696.288209 3572.805767 6696.523048 3573.182395 
Q 6696.824351 3573.665366 6697.316183 3573.931221 
Q 6697.808015 3574.192645 6698.446068 3574.192645 
Q 6699.99689 3574.192645 6700.883074 3573.000728 
Q 6701.769258 3571.80881 6701.769258 3569.69083 
L 6701.769258 3562.034199 
L 6706.727459 3562.034199 
L 6706.727459 3577.542421 
L 6701.769258 3577.542421 
L 6701.769258 3575.300375 
Q 6700.648235 3576.656237 6699.394285 3577.303152 
Q 6698.140334 3577.945635 6696.633821 3577.945635 
Q 6693.944252 3577.945635 6692.53965 3576.297333 
Q 6691.135048 3574.64903 6691.135048 3571.503076 
z
M 6716.445576 3575.300375 
L 6716.445576 3583.439977 
L 6711.491806 3583.439977 
L 6711.491806 3562.034199 
L 6716.445576 3562.034199 
L 6716.445576 3564.30283 
Q 6717.473549 3562.946968 6718.718638 3562.304485 
Q 6719.963727 3561.662001 6721.585444 3561.662001 
Q 6724.45225 3561.662001 6726.291082 3563.939494 
Q 6728.134345 3566.216988 6728.134345 3569.801603 
Q 6728.134345 3573.386218 6726.291082 3575.668142 
Q 6724.45225 3577.945635 6721.585444 3577.945635 
Q 6719.963727 3577.945635 6718.718638 3577.303152 
Q 6717.473549 3576.656237 6716.445576 3575.300375 
z
M 6719.742181 3565.259909 
Q 6718.15148 3565.259909 6717.296313 3566.429672 
Q 6716.445576 3567.599435 6716.445576 3569.801603 
Q 6716.445576 3572.00377 6717.296313 3573.173533 
Q 6718.15148 3574.343297 6719.742181 3574.343297 
Q 6721.332881 3574.343297 6722.170326 3573.182395 
Q 6723.0122 3572.017063 6723.0122 3569.801603 
Q 6723.0122 3567.586142 6722.170326 3566.425241 
Q 6721.332881 3565.259909 6719.742181 3565.259909 
z
M 6743.311356 3566.256866 
Q 6742.660011 3565.951133 6742.013097 3565.809343 
Q 6741.370613 3565.663123 6740.719268 3565.663123 
Q 6738.809541 3565.663123 6737.777136 3566.890488 
Q 6736.744732 3568.113422 6736.744732 3570.395346 
L 6736.744732 3577.542421 
L 6731.790962 3577.542421 
L 6731.790962 3562.034199 
L 6736.744732 3562.034199 
L 6736.744732 3564.581978 
Q 6737.701811 3563.057741 6738.938038 3562.362087 
Q 6740.178695 3561.662001 6741.911185 3561.662001 
Q 6742.159317 3561.662001 6742.447327 3561.684156 
Q 6742.739768 3561.701879 6743.293633 3561.772774 
L 6743.311356 3566.256866 
z
M 6745.776056 3562.034199 
L 6750.729826 3562.034199 
L 6750.729826 3577.542421 
L 6745.776056 3577.542421 
L 6745.776056 3562.034199 
z
M 6745.776056 3555.994853 
L 6750.729826 3555.994853 
L 6750.729826 3560.040284 
L 6745.776056 3560.040284 
L 6745.776056 3555.994853 
z
M 6755.328014 3571.503076 
L 6755.328014 3562.034199 
L 6760.3128 3562.034199 
L 6760.3128 3563.585021 
Q 6760.3128 3564.843402 6760.299507 3566.748698 
Q 6760.286214 3568.653994 6760.286214 3569.287616 
Q 6760.286214 3571.157464 6760.383694 3571.981616 
Q 6760.481175 3572.805767 6760.716013 3573.182395 
Q 6761.017316 3573.665366 6761.509148 3573.931221 
Q 6762.00098 3574.192645 6762.639033 3574.192645 
Q 6764.189855 3574.192645 6765.076039 3573.000728 
Q 6765.962224 3571.80881 6765.962224 3569.69083 
L 6765.962224 3562.034199 
L 6770.920424 3562.034199 
L 6770.920424 3577.542421 
L 6765.962224 3577.542421 
L 6765.962224 3575.300375 
Q 6764.841201 3576.656237 6763.58725 3577.303152 
Q 6762.333299 3577.945635 6760.826786 3577.945635 
Q 6758.137217 3577.945635 6756.732616 3576.297333 
Q 6755.328014 3574.64903 6755.328014 3571.503076 
z
M 6781.094926 3557.629863 
L 6781.094926 3562.034199 
L 6786.208209 3562.034199 
L 6786.208209 3565.578935 
L 6781.094926 3565.578935 
L 6781.094926 3572.154422 
Q 6781.094926 3573.235566 6781.524725 3573.616626 
Q 6781.954525 3573.997685 6783.23063 3573.997685 
L 6785.778409 3573.997685 
L 6785.778409 3577.542421 
L 6781.524725 3577.542421 
Q 6778.591456 3577.542421 6777.364091 3576.319487 
Q 6776.141156 3575.092122 6776.141156 3572.154422 
L 6776.141156 3565.578935 
L 6773.673134 3565.578935 
L 6773.673134 3562.034199 
L 6776.141156 3562.034199 
L 6776.141156 3557.629863 
L 6781.094926 3557.629863 
z
" clip-path="url(#p84205476b5)" style="fill: #fffafa; stroke: #000000"/>
    <path d="M 6662.100886 3562.034199 
L 6667.054655 3562.034199 
L 6667.054655 3577.263273 
Q 6667.054655 3580.382642 6665.557004 3582.022082 
Q 6664.063784 3583.661523 6661.227995 3583.661523 
L 6658.773264 3583.661523 
L 6658.773264 3580.409227 
L 6659.632863 3580.409227 
Q 6661.046327 3580.409227 6661.573606 3579.771175 
Q 6662.100886 3579.133122 6662.100886 3577.263273 
L 6662.100886 3562.034199 
z
M 6662.100886 3555.994853 
L 6667.054655 3555.994853 
L 6667.054655 3560.040284 
L 6662.100886 3560.040284 
L 6662.100886 3555.994853 
z
M 6679.198702 3565.206738 
Q 6677.550399 3565.206738 6676.68637 3566.389794 
Q 6675.82234 3567.57285 6675.82234 3569.801603 
Q 6675.82234 3572.030356 6676.68637 3573.217843 
Q 6677.550399 3574.400899 6679.198702 3574.400899 
Q 6680.820419 3574.400899 6681.675586 3573.217843 
Q 6682.535185 3572.030356 6682.535185 3569.801603 
Q 6682.535185 3567.57285 6681.675586 3566.389794 
Q 6680.820419 3565.206738 6679.198702 3565.206738 
z
M 6679.198702 3561.662001 
Q 6683.199823 3561.662001 6685.450731 3563.824291 
Q 6687.701639 3565.982149 6687.701639 3569.801603 
Q 6687.701639 3573.625487 6685.450731 3575.787777 
Q 6683.199823 3577.945635 6679.198702 3577.945635 
Q 6675.184287 3577.945635 6672.920087 3575.787777 
Q 6670.655886 3573.625487 6670.655886 3569.801603 
Q 6670.655886 3565.982149 6672.920087 3563.824291 
Q 6675.184287 3561.662001 6679.198702 3561.662001 
z
M 6691.135048 3571.503076 
L 6691.135048 3562.034199 
L 6696.119834 3562.034199 
L 6696.119834 3563.585021 
Q 6696.119834 3564.843402 6696.106542 3566.748698 
Q 6696.093249 3568.653994 6696.093249 3569.287616 
Q 6696.093249 3571.157464 6696.190729 3571.981616 
Q 6696.288209 3572.805767 6696.523048 3573.182395 
Q 6696.824351 3573.665366 6697.316183 3573.931221 
Q 6697.808015 3574.192645 6698.446068 3574.192645 
Q 6699.99689 3574.192645 6700.883074 3573.000728 
Q 6701.769258 3571.80881 6701.769258 3569.69083 
L 6701.769258 3562.034199 
L 6706.727459 3562.034199 
L 6706.727459 3577.542421 
L 6701.769258 3577.542421 
L 6701.769258 3575.300375 
Q 6700.648235 3576.656237 6699.394285 3577.303152 
Q 6698.140334 3577.945635 6696.633821 3577.945635 
Q 6693.944252 3577.945635 6692.53965 3576.297333 
Q 6691.135048 3574.64903 6691.135048 3571.503076 
z
M 6716.445576 3575.300375 
L 6716.445576 3583.439977 
L 6711.491806 3583.439977 
L 6711.491806 3562.034199 
L 6716.445576 3562.034199 
L 6716.445576 3564.30283 
Q 6717.473549 3562.946968 6718.718638 3562.304485 
Q 6719.963727 3561.662001 6721.585444 3561.662001 
Q 6724.45225 3561.662001 6726.291082 3563.939494 
Q 6728.134345 3566.216988 6728.134345 3569.801603 
Q 6728.134345 3573.386218 6726.291082 3575.668142 
Q 6724.45225 3577.945635 6721.585444 3577.945635 
Q 6719.963727 3577.945635 6718.718638 3577.303152 
Q 6717.473549 3576.656237 6716.445576 3575.300375 
z
M 6719.742181 3565.259909 
Q 6718.15148 3565.259909 6717.296313 3566.429672 
Q 6716.445576 3567.599435 6716.445576 3569.801603 
Q 6716.445576 3572.00377 6717.296313 3573.173533 
Q 6718.15148 3574.343297 6719.742181 3574.343297 
Q 6721.332881 3574.343297 6722.170326 3573.182395 
Q 6723.0122 3572.017063 6723.0122 3569.801603 
Q 6723.0122 3567.586142 6722.170326 3566.425241 
Q 6721.332881 3565.259909 6719.742181 3565.259909 
z
M 6743.311356 3566.256866 
Q 6742.660011 3565.951133 6742.013097 3565.809343 
Q 6741.370613 3565.663123 6740.719268 3565.663123 
Q 6738.809541 3565.663123 6737.777136 3566.890488 
Q 6736.744732 3568.113422 6736.744732 3570.395346 
L 6736.744732 3577.542421 
L 6731.790962 3577.542421 
L 6731.790962 3562.034199 
L 6736.744732 3562.034199 
L 6736.744732 3564.581978 
Q 6737.701811 3563.057741 6738.938038 3562.362087 
Q 6740.178695 3561.662001 6741.911185 3561.662001 
Q 6742.159317 3561.662001 6742.447327 3561.684156 
Q 6742.739768 3561.701879 6743.293633 3561.772774 
L 6743.311356 3566.256866 
z
M 6745.776056 3562.034199 
L 6750.729826 3562.034199 
L 6750.729826 3577.542421 
L 6745.776056 3577.542421 
L 6745.776056 3562.034199 
z
M 6745.776056 3555.994853 
L 6750.729826 3555.994853 
L 6750.729826 3560.040284 
L 6745.776056 3560.040284 
L 6745.776056 3555.994853 
z
M 6755.328014 3571.503076 
L 6755.328014 3562.034199 
L 6760.3128 3562.034199 
L 6760.3128 3563.585021 
Q 6760.3128 3564.843402 6760.299507 3566.748698 
Q 6760.286214 3568.653994 6760.286214 3569.287616 
Q 6760.286214 3571.157464 6760.383694 3571.981616 
Q 6760.481175 3572.805767 6760.716013 3573.182395 
Q 6761.017316 3573.665366 6761.509148 3573.931221 
Q 6762.00098 3574.192645 6762.639033 3574.192645 
Q 6764.189855 3574.192645 6765.076039 3573.000728 
Q 6765.962224 3571.80881 6765.962224 3569.69083 
L 6765.962224 3562.034199 
L 6770.920424 3562.034199 
L 6770.920424 3577.542421 
L 6765.962224 3577.542421 
L 6765.962224 3575.300375 
Q 6764.841201 3576.656237 6763.58725 3577.303152 
Q 6762.333299 3577.945635 6760.826786 3577.945635 
Q 6758.137217 3577.945635 6756.732616 3576.297333 
Q 6755.328014 3574.64903 6755.328014 3571.503076 
z
M 6781.094926 3557.629863 
L 6781.094926 3562.034199 
L 6786.208209 3562.034199 
L 6786.208209 3565.578935 
L 6781.094926 3565.578935 
L 6781.094926 3572.154422 
Q 6781.094926 3573.235566 6781.524725 3573.616626 
Q 6781.954525 3573.997685 6783.23063 3573.997685 
L 6785.778409 3573.997685 
L 6785.778409 3577.542421 
L 6781.524725 3577.542421 
Q 6778.591456 3577.542421 6777.364091 3576.319487 
Q 6776.141156 3575.092122 6776.141156 3572.154422 
L 6776.141156 3565.578935 
L 6773.673134 3565.578935 
L 6773.673134 3562.034199 
L 6776.141156 3562.034199 
L 6776.141156 3557.629863 
L 6781.094926 3557.629863 
z
" clip-path="url(#p84205476b5)" style="fill: #fffafa"/>
   </g>
   <g id="text_6">
    <!-- Constellation Retou : 2 communautés, 5 onchois -->
    <g style="fill: #ffffff" transform="translate(3026.552344 1096.164062) scale(1.3 -1.3)">
     <defs>
      <path id="DejaVuSerif-Bold-43" d="M 4769 1331 
Q 4584 609 4106 259 
Q 3628 -91 2822 -91 
Q 1641 -91 955 561 
Q 269 1213 269 2328 
Q 269 3447 955 4098 
Q 1641 4750 2822 4750 
Q 3238 4750 3688 4650 
Q 4138 4550 4641 4347 
L 4641 3200 
L 4244 3200 
Q 4122 3788 3800 4080 
Q 3478 4372 2950 4372 
Q 2269 4372 1937 3870 
Q 1606 3369 1606 2328 
Q 1606 1288 1937 788 
Q 2269 288 2956 288 
Q 3422 288 3717 547 
Q 4013 806 4147 1331 
L 4769 1331 
z
" transform="scale(0.015625)"/>
      <path id="DejaVuSerif-Bold-6f" d="M 2138 263 
Q 2488 263 2630 563 
Q 2772 863 2772 1663 
Q 2772 2463 2631 2761 
Q 2491 3059 2138 3059 
Q 1784 3059 1640 2757 
Q 1497 2456 1497 1663 
Q 1497 869 1640 566 
Q 1784 263 2138 263 
z
M 2138 -91 
Q 1259 -91 761 376 
Q 263 844 263 1663 
Q 263 2484 761 2948 
Q 1259 3413 2138 3413 
Q 3019 3413 3516 2948 
Q 4013 2484 4013 1663 
Q 4013 844 3514 376 
Q 3016 -91 2138 -91 
z
" transform="scale(0.015625)"/>
      <path id="DejaVuSerif-Bold-6e" d="M 219 0 
L 219 378 
L 691 378 
L 691 2944 
L 219 2944 
L 219 3322 
L 1797 3322 
L 1797 2853 
Q 1997 3150 2253 3281 
Q 2509 3413 2900 3413 
Q 3459 3413 3745 3083 
Q 4031 2753 4031 2113 
L 4031 378 
L 4506 378 
L 4506 0 
L 2522 0 
L 2522 378 
L 2925 378 
L 2925 2144 
Q 2925 2566 2817 2730 
Q 2709 2894 2444 2894 
Q 2109 2894 1953 2648 
Q 1797 2403 1797 1869 
L 1797 378 
L 2203 378 
L 2203 0 
L 219 0 
z
" transform="scale(0.015625)"/>
      <path id="DejaVuSerif-Bold-73" d="M 300 97 
L 300 1025 
L 653 1025 
Q 697 653 931 458 
Q 1166 263 1569 263 
Q 1906 263 2086 380 
Q 2266 497 2266 716 
Q 2266 916 2152 1025 
Q 2038 1134 1709 1216 
L 1253 1331 
Q 738 1459 506 1698 
Q 275 1938 275 2344 
Q 275 2884 650 3148 
Q 1025 3413 1806 3413 
Q 2100 3413 2433 3364 
Q 2766 3316 3169 3213 
L 3169 2375 
L 2816 2375 
Q 2788 2716 2573 2887 
Q 2359 3059 1959 3059 
Q 1622 3059 1448 2951 
Q 1275 2844 1275 2638 
Q 1275 2469 1375 2372 
Q 1475 2275 1734 2209 
L 2188 2094 
Q 2841 1928 3091 1684 
Q 3341 1441 3341 1006 
Q 3341 444 2939 176 
Q 2538 -91 1691 -91 
Q 1381 -91 1034 -44 
Q 688 3 300 97 
z
" transform="scale(0.015625)"/>
      <path id="DejaVuSerif-Bold-74" d="M 634 2944 
L 153 2944 
L 153 3322 
L 634 3322 
L 634 4353 
L 1741 4353 
L 1741 3322 
L 2663 3322 
L 2663 2944 
L 1741 2944 
L 1741 909 
Q 1741 475 1809 369 
Q 1878 263 2059 263 
Q 2259 263 2356 397 
Q 2453 531 2459 813 
L 2925 813 
Q 2897 313 2651 111 
Q 2406 -91 1806 -91 
Q 1122 -91 878 123 
Q 634 338 634 909 
L 634 2944 
z
" transform="scale(0.015625)"/>
      <path id="DejaVuSerif-Bold-65" d="M 2566 1875 
Q 2566 2531 2444 2795 
Q 2322 3059 2028 3059 
Q 1744 3059 1620 2800 
Q 1497 2541 1497 1931 
L 1497 1875 
L 2566 1875 
z
M 3781 1503 
L 1497 1503 
L 1497 1478 
Q 1497 834 1690 548 
Q 1884 263 2316 263 
Q 2675 263 2897 453 
Q 3119 644 3181 1006 
L 3700 1006 
Q 3566 441 3166 175 
Q 2766 -91 2047 -91 
Q 1184 -91 723 364 
Q 263 819 263 1663 
Q 263 2488 734 2950 
Q 1206 3413 2047 3413 
Q 2872 3413 3312 2927 
Q 3753 2441 3781 1503 
z
" transform="scale(0.015625)"/>
      <path id="DejaVuSerif-Bold-6c" d="M 1797 378 
L 2272 378 
L 2272 0 
L 219 0 
L 219 378 
L 691 378 
L 691 4488 
L 219 4488 
L 219 4863 
L 1797 4863 
L 1797 378 
z
" transform="scale(0.015625)"/>
      <path id="DejaVuSerif-Bold-61" d="M 3525 2041 
L 3525 378 
L 4000 378 
L 4000 0 
L 2419 0 
L 2419 422 
Q 2200 159 1931 34 
Q 1663 -91 1319 -91 
Q 809 -91 536 182 
Q 263 456 263 966 
Q 263 1525 655 1803 
Q 1047 2081 1838 2081 
L 2419 2081 
L 2419 2278 
Q 2419 2681 2228 2873 
Q 2038 3066 1638 3066 
Q 1306 3066 1126 2930 
Q 947 2794 872 2484 
L 519 2484 
L 519 3200 
Q 816 3306 1134 3359 
Q 1453 3413 1806 3413 
Q 2697 3413 3111 3081 
Q 3525 2750 3525 2041 
z
M 2419 1044 
L 2419 1709 
L 2003 1709 
Q 1694 1709 1528 1540 
Q 1363 1372 1363 1056 
Q 1363 741 1483 584 
Q 1603 428 1850 428 
Q 2106 428 2262 597 
Q 2419 766 2419 1044 
z
" transform="scale(0.015625)"/>
      <path id="DejaVuSerif-Bold-69" d="M 588 4263 
Q 588 4516 763 4689 
Q 938 4863 1191 4863 
Q 1438 4863 1611 4689 
Q 1784 4516 1784 4263 
Q 1784 4016 1611 3842 
Q 1438 3669 1191 3669 
Q 938 3669 763 3841 
Q 588 4013 588 4263 
z
M 1797 378 
L 2272 378 
L 2272 0 
L 219 0 
L 219 378 
L 691 378 
L 691 2944 
L 219 2944 
L 219 3322 
L 1797 3322 
L 1797 378 
z
" transform="scale(0.015625)"/>
      <path id="DejaVuSerif-Bold-20" transform="scale(0.015625)"/>
      <path id="DejaVuSerif-Bold-52" d="M 3397 2278 
Q 3675 2238 3865 2094 
Q 4056 1950 4197 1678 
L 4878 378 
L 5356 378 
L 5356 0 
L 3822 0 
L 3078 1409 
Q 2863 1847 2711 1967 
Q 2559 2088 2291 2088 
L 2100 2088 
L 2100 378 
L 2700 378 
L 2700 0 
L 300 0 
L 300 378 
L 897 378 
L 897 4288 
L 300 4288 
L 300 4666 
L 2963 4666 
Q 3775 4666 4217 4339 
Q 4659 4013 4659 3413 
Q 4659 2925 4345 2642 
Q 4031 2359 3397 2278 
z
M 2100 2463 
L 2509 2463 
Q 2947 2463 3183 2700 
Q 3419 2938 3419 3378 
Q 3419 3819 3183 4053 
Q 2947 4288 2509 4288 
L 2100 4288 
L 2100 2463 
z
" transform="scale(0.015625)"/>
      <path id="DejaVuSerif-Bold-75" d="M 3963 3322 
L 3963 378 
L 4434 378 
L 4434 0 
L 2853 0 
L 2853 469 
Q 2656 172 2400 40 
Q 2144 -91 1753 -91 
Q 1194 -91 908 239 
Q 622 569 622 1209 
L 622 2944 
L 147 2944 
L 147 3322 
L 1728 3322 
L 1728 1381 
Q 1728 763 1831 595 
Q 1934 428 2209 428 
Q 2544 428 2698 675 
Q 2853 922 2853 1459 
L 2853 2944 
L 2450 2944 
L 2450 3322 
L 3963 3322 
z
" transform="scale(0.015625)"/>
      <path id="DejaVuSerif-Bold-3a" d="M 588 2541 
Q 588 2788 761 2963 
Q 934 3138 1178 3138 
Q 1422 3138 1597 2961 
Q 1772 2784 1772 2541 
Q 1772 2297 1598 2125 
Q 1425 1953 1178 1953 
Q 931 1953 759 2125 
Q 588 2297 588 2541 
z
M 588 506 
Q 588 750 761 925 
Q 934 1100 1178 1100 
Q 1422 1100 1597 925 
Q 1772 750 1772 506 
Q 1772 259 1597 84 
Q 1422 -91 1178 -91 
Q 934 -91 761 84 
Q 588 259 588 506 
z
" transform="scale(0.015625)"/>
      <path id="DejaVuSerif-Bold-32" d="M 844 3513 
L 469 3513 
L 469 4519 
Q 850 4634 1223 4692 
Q 1597 4750 1978 4750 
Q 2869 4750 3367 4386 
Q 3866 4022 3866 3372 
Q 3866 2909 3591 2542 
Q 3316 2175 2541 1672 
L 1241 819 
L 3450 819 
L 3450 1369 
L 3878 1369 
L 3878 0 
L 428 0 
L 428 763 
L 1119 1241 
Q 2003 1850 2297 2278 
Q 2591 2706 2591 3278 
Q 2591 3819 2367 4101 
Q 2144 4384 1716 4384 
Q 1347 4384 1125 4161 
Q 903 3938 844 3513 
z
" transform="scale(0.015625)"/>
      <path id="DejaVuSerif-Bold-63" d="M 3609 1038 
Q 3491 469 3123 189 
Q 2756 -91 2125 -91 
Q 1238 -91 750 368 
Q 263 828 263 1663 
Q 263 2488 744 2950 
Q 1225 3413 2081 3413 
Q 2428 3413 2781 3347 
Q 3134 3281 3500 3150 
L 3500 2228 
L 3150 2228 
Q 3100 2650 2903 2854 
Q 2706 3059 2350 3059 
Q 1888 3059 1692 2746 
Q 1497 2434 1497 1663 
Q 1497 909 1687 586 
Q 1878 263 2309 263 
Q 2644 263 2845 463 
Q 3047 663 3091 1038 
L 3609 1038 
z
" transform="scale(0.015625)"/>
      <path id="DejaVuSerif-Bold-6d" d="M 3884 2778 
Q 4116 3109 4384 3261 
Q 4653 3413 5013 3413 
Q 5584 3413 5867 3089 
Q 6150 2766 6150 2113 
L 6150 378 
L 6625 378 
L 6625 0 
L 4647 0 
L 4647 378 
L 5044 378 
L 5044 1947 
Q 5044 2569 4948 2731 
Q 4853 2894 4594 2894 
Q 4300 2894 4137 2667 
Q 3975 2441 3975 2022 
L 3975 378 
L 4372 378 
L 4372 0 
L 2472 0 
L 2472 378 
L 2869 378 
L 2869 1947 
Q 2869 2569 2772 2731 
Q 2675 2894 2419 2894 
Q 2122 2894 1959 2667 
Q 1797 2441 1797 2022 
L 1797 378 
L 2194 378 
L 2194 0 
L 219 0 
L 219 378 
L 691 378 
L 691 2944 
L 219 2944 
L 219 3322 
L 1797 3322 
L 1797 2853 
Q 1991 3144 2241 3278 
Q 2491 3413 2834 3413 
Q 3241 3413 3494 3258 
Q 3747 3103 3884 2778 
z
" transform="scale(0.015625)"/>
      <path id="DejaVuSerif-Bold-e9" d="M 2566 1875 
Q 2566 2531 2444 2795 
Q 2322 3059 2028 3059 
Q 1744 3059 1620 2800 
Q 1497 2541 1497 1931 
L 1497 1875 
L 2566 1875 
z
M 3781 1503 
L 1497 1503 
L 1497 1478 
Q 1497 834 1690 548 
Q 1884 263 2316 263 
Q 2675 263 2897 453 
Q 3119 644 3181 1006 
L 3700 1006 
Q 3566 441 3166 175 
Q 2766 -91 2047 -91 
Q 1184 -91 723 364 
Q 263 819 263 1663 
Q 263 2488 734 2950 
Q 1206 3413 2047 3413 
Q 2872 3413 3312 2927 
Q 3753 2441 3781 1503 
z
M 2320 5119 
L 3191 5119 
L 2026 3944 
L 1513 3944 
L 2320 5119 
z
" transform="scale(0.015625)"/>
      <path id="DejaVuSerif-Bold-2c" d="M 84 -616 
Q 409 -353 562 -28 
Q 716 297 716 728 
L 716 997 
L 1606 997 
L 1606 972 
Q 1606 281 1317 -217 
Q 1028 -716 428 -1056 
L 84 -616 
z
" transform="scale(0.015625)"/>
      <path id="DejaVuSerif-Bold-35" d="M 3609 4666 
L 3609 3847 
L 1113 3847 
L 1113 2822 
Q 1319 2981 1572 3062 
Q 1825 3144 2106 3144 
Q 2969 3144 3469 2708 
Q 3969 2272 3969 1522 
Q 3969 759 3469 334 
Q 2969 -91 2069 -91 
Q 1688 -91 1311 -28 
Q 934 34 525 166 
L 525 1184 
L 900 1184 
Q 919 725 1139 500 
Q 1359 275 1791 275 
Q 2250 275 2472 583 
Q 2694 891 2694 1522 
Q 2694 2144 2476 2451 
Q 2259 2759 1819 2759 
Q 1581 2759 1395 2661 
Q 1209 2563 1050 2356 
L 738 2356 
L 738 4666 
L 3609 4666 
z
" transform="scale(0.015625)"/>
      <path id="DejaVuSerif-Bold-68" d="M 219 0 
L 219 378 
L 691 378 
L 691 4488 
L 197 4488 
L 197 4863 
L 1797 4863 
L 1797 2853 
Q 1997 3150 2253 3281 
Q 2509 3413 2900 3413 
Q 3459 3413 3745 3083 
Q 4031 2753 4031 2113 
L 4031 378 
L 4506 378 
L 4506 0 
L 2522 0 
L 2522 378 
L 2925 378 
L 2925 2144 
Q 2925 2566 2817 2730 
Q 2709 2894 2444 2894 
Q 2109 2894 1953 2648 
Q 1797 2403 1797 1869 
L 1797 378 
L 2203 378 
L 2203 0 
L 219 0 
z
" transform="scale(0.015625)"/>
     </defs>
     <use xlink:href="#DejaVuSerif-Bold-43"/>
     <use xlink:href="#DejaVuSerif-Bold-6f" x="79.589844"/>
     <use xlink:href="#DejaVuSerif-Bold-6e" x="146.289062"/>
     <use xlink:href="#DejaVuSerif-Bold-73" x="218.994141"/>
     <use xlink:href="#DejaVuSerif-Bold-74" x="275.292969"/>
     <use xlink:href="#DejaVuSerif-Bold-65" x="321.484375"/>
     <use xlink:href="#DejaVuSerif-Bold-6c" x="385.107422"/>
     <use xlink:href="#DejaVuSerif-Bold-6c" x="423.095703"/>
     <use xlink:href="#DejaVuSerif-Bold-61" x="461.083984"/>
     <use xlink:href="#DejaVuSerif-Bold-74" x="525.878906"/>
     <use xlink:href="#DejaVuSerif-Bold-69" x="572.070312"/>
     <use xlink:href="#DejaVuSerif-Bold-6f" x="610.058594"/>
     <use xlink:href="#DejaVuSerif-Bold-6e" x="676.757812"/>
     <use xlink:href="#DejaVuSerif-Bold-20" x="749.462891"/>
     <use xlink:href="#DejaVuSerif-Bold-52" x="784.277344"/>
     <use xlink:href="#DejaVuSerif-Bold-65" x="867.382812"/>
     <use xlink:href="#DejaVuSerif-Bold-74" x="931.005859"/>
     <use xlink:href="#DejaVuSerif-Bold-6f" x="977.197266"/>
     <use xlink:href="#DejaVuSerif-Bold-75" x="1043.896484"/>
     <use xlink:href="#DejaVuSerif-Bold-20" x="1116.601562"/>
     <use xlink:href="#DejaVuSerif-Bold-3a" x="1151.416016"/>
     <use xlink:href="#DejaVuSerif-Bold-20" x="1188.330078"/>
     <use xlink:href="#DejaVuSerif-Bold-32" x="1223.144531"/>
     <use xlink:href="#DejaVuSerif-Bold-20" x="1292.724609"/>
     <use xlink:href="#DejaVuSerif-Bold-63" x="1327.539062"/>
     <use xlink:href="#DejaVuSerif-Bold-6f" x="1388.427734"/>
     <use xlink:href="#DejaVuSerif-Bold-6d" x="1455.126953"/>
     <use xlink:href="#DejaVuSerif-Bold-6d" x="1560.9375"/>
     <use xlink:href="#DejaVuSerif-Bold-75" x="1666.748047"/>
     <use xlink:href="#DejaVuSerif-Bold-6e" x="1739.453125"/>
     <use xlink:href="#DejaVuSerif-Bold-61" x="1812.158203"/>
     <use xlink:href="#DejaVuSerif-Bold-75" x="1876.953125"/>
     <use xlink:href="#DejaVuSerif-Bold-74" x="1949.658203"/>
     <use xlink:href="#DejaVuSerif-Bold-e9" x="1995.849609"/>
     <use xlink:href="#DejaVuSerif-Bold-73" x="2059.472656"/>
     <use xlink:href="#DejaVuSerif-Bold-2c" x="2115.771484"/>
     <use xlink:href="#DejaVuSerif-Bold-20" x="2150.585938"/>
     <use xlink:href="#DejaVuSerif-Bold-35" x="2185.400391"/>
     <use xlink:href="#DejaVuSerif-Bold-20" x="2254.980469"/>
     <use xlink:href="#DejaVuSerif-Bold-6f" x="2289.794922"/>
     <use xlink:href="#DejaVuSerif-Bold-6e" x="2356.494141"/>
     <use xlink:href="#DejaVuSerif-Bold-63" x="2429.199219"/>
     <use xlink:href="#DejaVuSerif-Bold-68" x="2490.087891"/>
     <use xlink:href="#DejaVuSerif-Bold-6f" x="2562.792969"/>
     <use xlink:href="#DejaVuSerif-Bold-69" x="2629.492188"/>
     <use xlink:href="#DejaVuSerif-Bold-73" x="2667.480469"/>
    </g>
   </g>
  </g>
 </g>
 <defs>
  <clipPath id="p84205476b5">
   <rect x="1170" y="1123.2" width="7254" height="7207.2"/>
  </clipPath>
 </defs>
</svg>
